<svg xmlns="http://www.w3.org/2000/svg" width="2803" height="1318" viewBox="0 0 2803 1318" version="1.1"><path d="M 501.500 1.891 C 473.967 9.935, 448.469 37.803, 425.918 84.500 C 418.334 100.205, 416.672 104.338, 407.426 130.500 C 395.248 164.957, 372.742 201.630, 350.867 222.660 C 345.756 227.574, 344.928 227.970, 333.500 230.981 C 258.120 250.842, 186.347 291.508, 130.610 345.936 C 53.958 420.787, 9.529 513.896, 0.921 617.716 C -0.791 638.368, 0.259 684.216, 2.886 703.518 C 6.958 733.437, 12.575 757.613, 21.699 784.500 C 72.609 934.523, 205.217 1047.220, 367.500 1078.380 C 379.083 1080.604, 401.245 1084, 404.174 1084 C 405.966 1084, 424.609 1102.784, 431.963 1112 C 450.251 1134.916, 463.732 1160.610, 476.296 1196.500 C 498.587 1260.175, 530.279 1302.638, 564.500 1314.684 L 572.500 1317.500 1404.842 1317.754 C 2159.221 1317.983, 2237.752 1317.860, 2243.255 1316.434 C 2277.972 1307.438, 2313.099 1261.499, 2335.692 1195.548 C 2349.674 1154.732, 2368.148 1123.123, 2392.892 1097.676 C 2406.026 1084.170, 2405.673 1084.360, 2423.141 1081.416 C 2491.849 1069.838, 2551.182 1046.437, 2608 1008.506 C 2692.620 952.016, 2753.535 872.081, 2783.973 777.590 C 2792.191 752.077, 2798.747 720.163, 2801.039 694.500 C 2801.678 687.350, 2802.606 680.466, 2803.100 679.203 C 2804.357 675.994, 2804.259 621.052, 2803 623 C 2802.306 624.075, 2802.026 623.022, 2802.015 619.288 C 2802.007 616.422, 2801.109 607.134, 2800.019 598.648 C 2783.462 469.702, 2708.220 355.864, 2592.300 284.381 C 2556.813 262.498, 2507.677 241.490, 2468.500 231.452 L 2457.500 228.633 2450.990 222.066 C 2426.786 197.650, 2407.926 165.640, 2393.867 125.111 C 2387.370 106.384, 2383.186 96.330, 2375.414 80.780 C 2353.843 37.617, 2330.192 12.130, 2303 2.744 L 2296.500 0.500 1402 0.319 C 552.172 0.148, 507.200 0.226, 501.500 1.891 M 1116.992 109.940 C 1099.822 112.262, 1086.101 121.688, 1080.804 134.798 C 1078.503 140.492, 1078.500 140.575, 1078.500 191.500 L 1078.500 242.500 1081.686 249.225 C 1088.907 264.468, 1104.589 272.965, 1125.500 272.965 C 1145.113 272.965, 1159.636 265.573, 1166.200 252.250 L 1169.500 245.553 1170 216.527 C 1170.275 200.562, 1170.244 187.154, 1169.931 186.731 C 1169.618 186.308, 1158.818 186.083, 1145.931 186.231 L 1122.500 186.500 1122.500 198.500 L 1122.500 210.500 1130.750 210.147 L 1139 209.795 1138.985 223.147 C 1138.976 231.753, 1138.531 237.355, 1137.735 238.904 C 1135.508 243.237, 1131.442 245.429, 1125.626 245.429 C 1119.503 245.429, 1115.891 243.509, 1112.956 238.696 C 1111.102 235.655, 1111.007 233.348, 1111.007 191 C 1111.007 148.652, 1111.102 146.345, 1112.956 143.304 C 1114.028 141.547, 1116.119 139.313, 1117.604 138.340 C 1121.087 136.058, 1129.420 136.054, 1133.741 138.333 C 1139.053 141.134, 1140.371 144.167, 1140.829 154.645 L 1141.239 164 1155.715 164 L 1170.192 164 1169.840 150.250 C 1169.496 136.788, 1169.416 136.367, 1166.060 130.166 C 1162.470 123.534, 1157.400 118.702, 1150.249 115.100 C 1141.680 110.783, 1127.278 108.549, 1116.992 109.940 M 1341.322 111.527 C 1333.638 113.598, 1327.626 116.697, 1322.441 121.261 C 1316.917 126.123, 1313.973 130.590, 1311.405 138 C 1309.634 143.112, 1309.500 146.886, 1309.500 191.500 C 1309.500 234.325, 1309.688 240.107, 1311.243 245.131 C 1316.436 261.902, 1330.844 271.523, 1352.500 272.678 C 1363.516 273.266, 1372.815 271.666, 1380.163 267.917 C 1386.437 264.716, 1393.328 257.702, 1396.511 251.278 C 1399.083 246.086, 1399.438 244.131, 1400.015 232 C 1400.367 224.575, 1400.482 218.162, 1400.269 217.750 C 1400.056 217.338, 1393.384 217, 1385.441 217 L 1371 217 1370.996 226.250 C 1370.992 236.702, 1369.381 240.718, 1364.094 243.451 C 1360.275 245.426, 1352.755 245.442, 1348.967 243.483 C 1342.566 240.173, 1342.530 239.908, 1342.209 193.259 C 1342.026 166.608, 1342.297 149.612, 1342.943 147.211 C 1345.196 138.845, 1354.622 134.726, 1363.257 138.334 C 1369.288 140.854, 1370.992 144.798, 1370.996 156.250 L 1371 166 1385.592 166 L 1400.183 166 1399.842 151.250 C 1399.517 137.252, 1399.350 136.205, 1396.564 130.706 C 1391.643 120.995, 1383.241 114.600, 1371.320 111.495 C 1364.174 109.634, 1348.285 109.651, 1341.322 111.527 M 1447.112 111.581 C 1434.448 114.987, 1424.130 123.099, 1419.455 133.325 C 1415.337 142.334, 1414.842 149.758, 1415.229 196.681 C 1415.574 238.564, 1415.685 240.753, 1417.735 246.233 C 1424.459 264.201, 1439.126 272.960, 1462.500 272.968 C 1482.232 272.974, 1497.402 265.193, 1504.719 251.313 C 1509.712 241.840, 1510 238.549, 1510 191 C 1510 143.444, 1509.712 140.161, 1504.714 130.679 C 1497.442 116.884, 1483.215 109.930, 1462.540 110.066 C 1457.018 110.102, 1450.076 110.784, 1447.112 111.581 M 1558.112 111.581 C 1541.310 116.099, 1530.073 127.797, 1527.008 143.960 C 1525.348 152.711, 1525.731 233.067, 1527.471 241.280 C 1531.828 261.840, 1547.818 272.970, 1573 272.970 C 1598.571 272.970, 1615.935 260.432, 1619.992 239.040 C 1621.321 232.034, 1621.321 149.966, 1619.992 142.960 C 1615.943 121.607, 1599.334 109.892, 1573.356 110.066 C 1567.935 110.102, 1561.076 110.784, 1558.112 111.581 M 1934.500 110.680 C 1921.682 113.548, 1910.496 120.409, 1905.281 128.601 C 1898.998 138.472, 1898.897 139.553, 1899.214 193.631 C 1899.497 242.005, 1899.523 242.558, 1901.804 248.202 C 1906.463 259.733, 1918.633 269.121, 1932.711 272.044 C 1940.081 273.574, 1958.812 272.754, 1965.651 270.602 C 1976.647 267.142, 1986.253 257.830, 1989.378 247.603 C 1990.594 243.621, 1990.999 236.403, 1991.218 214.749 L 1991.500 186.998 1967.250 186.999 L 1943 187 1943 199 L 1943 211 1951.500 211 L 1960 211 1960 223.599 C 1960 233.001, 1959.600 237.041, 1958.423 239.522 C 1954.418 247.962, 1939.106 248.143, 1934.026 239.810 C 1932.081 236.620, 1932.007 234.871, 1932.004 191.700 C 1932 142.251, 1931.929 142.843, 1938.299 138.960 C 1942.108 136.637, 1949.854 136.356, 1953.802 138.398 C 1959.537 141.363, 1960.461 143.411, 1961 154.350 C 1961.480 164.088, 1961.591 164.497, 1963.750 164.429 C 1964.987 164.389, 1971.669 164.277, 1978.598 164.179 L 1991.196 164 1990.848 150.750 C 1990.531 138.679, 1990.253 136.998, 1987.730 131.858 C 1982.859 121.940, 1972.721 114.561, 1959.769 111.508 C 1953.950 110.136, 1939.104 109.649, 1934.500 110.680 M 2251.721 111.567 C 2238.214 114.839, 2227.741 122.684, 2222.441 133.500 L 2219.500 139.500 2219.500 192.021 L 2219.500 244.542 2222.787 251.218 C 2230.425 266.735, 2245.337 273.743, 2268.666 272.780 C 2285.620 272.080, 2296.966 266.324, 2303.778 254.965 C 2308.379 247.294, 2309.283 243.197, 2309.399 229.500 L 2309.500 217.500 2295 217.500 L 2280.500 217.500 2280 227.500 C 2279.721 233.074, 2278.909 238.537, 2278.164 239.844 C 2276.161 243.361, 2268.624 246.355, 2263.740 245.574 C 2258.342 244.711, 2256.245 243.450, 2253.950 239.686 C 2252.103 236.656, 2252.007 234.298, 2252.007 191.500 C 2252.007 148.702, 2252.103 146.344, 2253.950 143.314 C 2257.557 137.398, 2264.986 135.573, 2272.294 138.806 C 2278.690 141.635, 2280 144.636, 2280 156.450 L 2280 166 2295 166 L 2310 166 2309.994 156.750 C 2309.983 139.172, 2307.203 130.151, 2299.390 122.337 C 2288.933 111.881, 2269.008 107.379, 2251.721 111.567 M 729.721 111.649 C 729.191 112.513, 697.445 263.425, 696.833 267.987 L 696.500 270.474 711 270.139 C 718.975 269.955, 725.686 269.625, 725.913 269.405 C 726.141 269.186, 727.729 261.468, 729.444 252.253 L 732.561 235.500 749.158 235.226 L 765.755 234.953 767.478 244.726 C 768.426 250.102, 769.943 258.073, 770.850 262.440 L 772.500 270.379 788.500 270.106 C 797.300 269.955, 804.606 269.727, 804.735 269.598 C 804.864 269.469, 797.892 233.956, 789.241 190.682 L 773.512 112 754.881 112 C 744.634 112, 734.898 111.730, 733.246 111.399 C 731.594 111.069, 730.008 111.181, 729.721 111.649 M 2185.502 113.250 C 2185.206 114.487, 2177.319 157.125, 2167.974 208 C 2158.629 258.875, 2150.712 301.962, 2150.380 303.750 L 2149.777 307 2159.870 307 C 2169.514 307, 2169.985 306.900, 2170.487 304.750 C 2171.590 300.020, 2205 113.907, 2205 112.491 C 2205 111.274, 2203.255 111, 2195.519 111 C 2186.513 111, 2186.011 111.113, 2185.502 113.250 M 494 191 L 494 270 510 270 L 526 270 526 237.500 L 526 205 540 205 L 554 205 554 237.441 C 554 255.284, 554.337 270.026, 554.750 270.203 C 555.163 270.380, 562.587 270.375, 571.250 270.192 L 587 269.859 587 190.930 L 587 112 570.500 112 L 554 112 554 144 L 554 176 540 176 L 526 176 526 144 L 526 112 510 112 L 494 112 494 191 M 606 191.625 L 606 271.250 609.125 270.625 C 610.844 270.281, 628.619 270, 648.625 270 L 685 270 685 256.500 L 685 243 661.479 243 L 637.959 243 638.229 222.750 L 638.500 202.500 656.750 202.227 L 675 201.955 675 188.390 L 675 174.825 656.750 175.119 L 638.500 175.413 638.500 156.957 L 638.500 138.500 661.250 138.231 L 684 137.962 684 128.106 C 684 122.685, 684.281 116.844, 684.625 115.125 L 685.250 112 645.625 112 L 606 112 606 191.625 M 804 125.250 L 803.999 138.500 819.064 138.500 L 834.129 138.500 834.031 204.170 C 833.977 240.289, 834.286 270.008, 834.717 270.211 C 835.148 270.415, 842.584 270.410, 851.243 270.201 L 866.986 269.821 867.243 204.160 L 867.500 138.500 882.750 138.224 L 898 137.948 898 124.974 L 898 112 851 112 L 804 112 804 125.250 M 911 190.941 C 911 234.359, 911.337 270.039, 911.750 270.232 C 912.163 270.424, 919.587 270.410, 928.250 270.201 L 944 269.821 944 190.910 L 944 112 927.500 112 L 911 112 911 190.941 M 963 190.941 C 963 234.359, 963.337 270.031, 963.750 270.214 C 964.163 270.397, 970.688 270.389, 978.250 270.196 L 992 269.845 992 222.756 C 992 196.857, 992.267 175.934, 992.594 176.260 C 992.920 176.587, 1001.656 197.924, 1012.007 223.677 C 1022.359 249.430, 1031.316 270.455, 1031.914 270.400 C 1032.511 270.345, 1039.075 270.233, 1046.500 270.150 L 1060 270 1060 191 L 1060 112 1045.511 112 L 1031.022 112 1030.761 153.856 L 1030.500 195.713 1013.560 153.856 L 996.621 112 979.810 112 L 963 112 963 190.941 M 1639 191.500 L 1639 271 1678 271 L 1717 271 1717 260.625 C 1717 254.919, 1717.281 248.844, 1717.625 247.125 L 1718.250 244 1694.625 244 L 1671 244 1671 178 L 1671 112 1655 112 L 1639 112 1639 191.500 M 1732.667 112.667 C 1732.300 113.033, 1732 148.808, 1732 192.167 L 1732 271 1748.500 271 L 1765 271 1765 191.500 L 1765 112 1749.167 112 C 1740.458 112, 1733.033 112.300, 1732.667 112.667 M 1784.667 112.667 C 1784.300 113.033, 1784 148.808, 1784 192.167 L 1784 271 1798.490 271 L 1812.981 271 1813.240 223.394 L 1813.500 175.788 1832.551 223.144 L 1851.602 270.500 1866.301 270.777 L 1881 271.053 1881 191.527 L 1881 112 1866.511 112 L 1852.022 112 1851.761 154.194 L 1851.500 196.389 1834.500 154.210 L 1817.500 112.032 1801.417 112.016 C 1792.571 112.007, 1785.033 112.300, 1784.667 112.667 M 2070.035 117.231 C 2067.090 130.858, 2038 270.014, 2038 270.475 C 2038 270.764, 2044.696 271, 2052.880 271 L 2067.760 271 2070.474 256.250 C 2071.967 248.137, 2073.512 240.150, 2073.908 238.500 L 2074.627 235.500 2090.993 235.500 L 2107.358 235.500 2110.633 253 C 2112.434 262.625, 2113.928 270.613, 2113.954 270.750 C 2113.979 270.887, 2121.434 271, 2130.519 271 L 2147.038 271 2146.495 268.750 C 2146.196 267.512, 2139.037 231.850, 2130.587 189.500 L 2115.222 112.500 2093.198 112.231 L 2071.174 111.962 2070.035 117.231 M 1456.071 138.752 C 1454.185 139.713, 1451.710 141.770, 1450.571 143.322 C 1448.563 146.058, 1448.491 147.463, 1448.209 189.320 C 1447.951 227.555, 1448.107 232.992, 1449.574 236.833 C 1451.705 242.414, 1455.802 244.996, 1462.500 244.982 C 1468.663 244.968, 1471.766 243.472, 1474.720 239.088 L 1477 235.704 1477 191.302 C 1477 141.216, 1477.156 142.336, 1469.684 138.943 C 1464.446 136.566, 1460.468 136.509, 1456.071 138.752 M 1567.071 138.752 C 1565.185 139.713, 1562.710 141.770, 1561.571 143.322 C 1559.563 146.058, 1559.491 147.459, 1559.214 189.322 C 1558.962 227.489, 1559.120 233.003, 1560.579 236.835 C 1562.704 242.413, 1566.800 244.996, 1573.500 244.982 C 1579.663 244.968, 1582.766 243.472, 1585.720 239.088 L 1588 235.704 1588 191.753 C 1588 141.828, 1588.066 142.297, 1580.576 138.895 C 1575.444 136.564, 1571.444 136.522, 1567.071 138.752 M 748.607 150.678 C 748.286 152.230, 745.988 164.975, 743.500 179 C 741.012 193.025, 738.748 205.512, 738.469 206.750 C 737.967 208.979, 738.065 209, 749.109 209 L 760.256 209 759.628 205.250 C 753.986 171.510, 749.967 148.634, 749.622 148.288 C 749.384 148.051, 748.928 149.127, 748.607 150.678 M 2090.652 150 C 2089.850 153.001, 2080 207.553, 2080 208.993 C 2080 209.608, 2084.309 210, 2091.079 210 L 2102.159 210 2101.590 207.250 C 2101.276 205.738, 2098.984 192.350, 2096.496 177.500 C 2091.015 144.794, 2091.471 146.936, 2090.652 150 M 1218 203.500 L 1218 215 1240 215 L 1262 215 1262 203.500 L 1262 192 1240 192 L 1218 192 1218 203.500 M 318.500 355.552 C 233.275 367.026, 164.025 429.387, 143.661 513 C 137.885 536.715, 137.909 536.028, 138.241 664.076 C 138.543 780.950, 138.555 781.552, 140.777 792.706 C 149.449 836.247, 168.802 872.999, 198.904 903.092 C 233.167 937.345, 275.826 957.731, 324 962.873 C 330.318 963.547, 690.768 964.115, 1400 964.568 C 2395.599 965.205, 2467.459 965.138, 2480.931 963.568 C 2576.087 952.474, 2650.127 879.569, 2663.482 783.814 C 2665.700 767.909, 2665.715 550.787, 2663.499 535.196 C 2658.062 496.948, 2642.439 460.946, 2618.276 430.985 C 2610.530 421.380, 2592.696 404.166, 2582.791 396.734 C 2561.100 380.458, 2535.396 367.967, 2510.500 361.603 C 2485.664 355.254, 2505.174 355.768, 2259.500 354.983 C 2136.300 354.589, 1651.425 354.254, 1182 354.237 C 472.142 354.211, 326.817 354.433, 318.500 355.552 M 1167.221 468.750 C 1123.267 547.048, 1123 547.529, 1123 548.434 C 1123 548.745, 1133.013 548.999, 1145.250 548.997 L 1167.500 548.994 1176.621 531.747 L 1185.742 514.500 1210.727 514.233 L 1235.712 513.966 1236.434 530.706 C 1236.832 539.912, 1237.373 547.795, 1237.638 548.223 C 1238.255 549.221, 1286.994 549.248, 1287.019 548.250 C 1287.081 545.853, 1275.772 396.280, 1275.452 395.250 C 1275.151 394.283, 1267.601 394, 1242.123 394 L 1209.183 394 1167.221 468.750 M 1482 395.612 C 1482 395.949, 1488.536 416.889, 1496.525 442.147 L 1511.050 488.070 1504.025 517.677 C 1500.161 533.961, 1497 547.670, 1497 548.142 C 1497 548.614, 1507.977 549, 1521.393 549 C 1539.990 549, 1545.898 548.703, 1546.256 547.750 C 1546.514 547.063, 1549.800 533.450, 1553.558 517.500 L 1560.391 488.500 1589.891 451 C 1606.116 430.375, 1622.698 409.337, 1626.740 404.250 L 1634.089 395 1610.294 395.049 L 1586.500 395.098 1567 423.466 L 1547.500 451.835 1545.348 443.167 C 1544.165 438.400, 1541.084 425.613, 1538.502 414.750 L 1533.808 395 1507.904 395 C 1493.657 395, 1482 395.275, 1482 395.612 M 1346.706 408.750 C 1346.480 409.163, 1345.027 415.012, 1343.478 421.750 L 1340.661 434 1332.493 434 L 1324.325 434 1321.824 444.750 C 1320.449 450.663, 1319.503 455.837, 1319.721 456.250 C 1319.939 456.663, 1323.519 457, 1327.676 457 C 1334.378 457, 1335.182 457.198, 1334.784 458.750 C 1334.536 459.712, 1330.602 476.327, 1326.041 495.672 C 1317.240 533.001, 1317 535.187, 1321.125 540.432 C 1323.927 543.994, 1331.242 547.553, 1338.827 549.046 C 1345.470 550.353, 1374.313 549.817, 1381 548.263 C 1384.486 547.453, 1384.511 547.407, 1387.166 536.975 C 1388.632 531.214, 1389.871 526.050, 1389.918 525.500 C 1389.972 524.875, 1386.271 524.618, 1380.058 524.815 C 1369.850 525.139, 1366 524.213, 1366 521.435 C 1366 520.096, 1377.612 470.054, 1380.082 460.750 L 1381.077 457 1393.560 457 C 1405.557 457, 1406.080 456.913, 1406.992 454.750 C 1407.784 452.871, 1412 435.758, 1412 434.421 C 1412 434.189, 1406.216 434, 1399.148 434 L 1386.295 434 1389.125 422.250 C 1390.681 415.788, 1391.965 409.938, 1391.977 409.250 C 1391.995 408.286, 1386.857 408, 1369.559 408 C 1357.216 408, 1346.933 408.337, 1346.706 408.750 M 1225.334 439.764 C 1222.532 445.119, 1215.652 458.387, 1210.044 469.250 L 1199.848 489 1216.518 489 L 1233.188 489 1232.481 460.250 C 1232.093 444.438, 1231.472 431.169, 1231.102 430.764 C 1230.731 430.360, 1228.136 434.410, 1225.334 439.764 M 1668.919 431.951 C 1659.559 433.657, 1648.708 437.122, 1641.747 440.628 C 1632.849 445.108, 1623.122 454.552, 1620.762 461 C 1617.493 469.932, 1606.698 517.502, 1606.693 523 C 1606.678 540.037, 1622.926 549.556, 1654 550.714 C 1676.806 551.565, 1694.496 548.244, 1708.540 540.477 C 1715.433 536.665, 1724.382 527.724, 1726.588 522.444 C 1729.197 516.199, 1741.160 464.710, 1741.213 459.500 C 1741.336 447.225, 1732.398 438.526, 1714.500 433.501 C 1707.672 431.584, 1676.709 430.531, 1668.919 431.951 M 1989.176 433.025 C 1983.004 434.304, 1974.345 438.476, 1969.320 442.594 C 1966.944 444.541, 1965.005 445.991, 1965.012 445.817 C 1965.018 445.643, 1965.688 443.025, 1966.500 440 C 1967.312 436.975, 1967.982 434.163, 1967.988 433.750 C 1967.995 433.337, 1957.875 433, 1945.500 433 C 1933.125 433, 1923 433.187, 1923 433.416 C 1923 433.645, 1916.925 459.525, 1909.500 490.926 C 1902.075 522.328, 1896 548.240, 1896 548.510 C 1896 549.319, 1940.844 549.062, 1941.343 548.250 C 1941.597 547.837, 1945.902 530.175, 1950.912 509 C 1956.199 486.646, 1960.768 469.452, 1961.804 468 C 1962.786 466.625, 1966.269 464.150, 1969.545 462.500 C 1975.403 459.549, 1975.755 459.500, 1991.120 459.500 L 2006.740 459.500 2009.843 446.557 C 2011.550 439.438, 2012.697 433.363, 2012.392 433.057 C 2011.444 432.106, 1993.732 432.082, 1989.176 433.025 M 1762.210 480.750 C 1756.028 507.012, 1750.976 530.007, 1750.985 531.849 C 1751.040 543.877, 1763.358 551.127, 1783.719 551.115 C 1798.457 551.106, 1810.650 547.753, 1820.764 540.927 L 1825.241 537.905 1824.572 540.569 C 1824.204 542.035, 1823.642 544.540, 1823.323 546.136 L 1822.742 549.039 1845.073 548.769 L 1867.405 548.500 1880.671 492.500 C 1887.968 461.700, 1893.952 435.712, 1893.969 434.750 C 1893.998 433.136, 1892.300 433, 1872.059 433 C 1858.960 433, 1849.876 433.391, 1849.518 433.970 C 1849.189 434.504, 1844.629 453.066, 1839.386 475.220 C 1833.783 498.897, 1829.038 516.820, 1827.875 518.702 C 1826.677 520.640, 1823.744 522.956, 1820.443 524.572 C 1815.892 526.798, 1814.005 527.168, 1809.032 526.809 C 1801.955 526.297, 1798.994 524.165, 1799.013 519.595 C 1799.020 517.893, 1803.295 498.510, 1808.513 476.523 C 1813.731 454.535, 1818 435.748, 1818 434.773 C 1818 433.129, 1816.381 433, 1795.725 433 L 1773.451 433 1762.210 480.750 M 1674.684 455.449 C 1670.034 457.107, 1667.515 459.284, 1666.150 462.822 C 1664.212 467.845, 1653 517.071, 1653 520.556 C 1653 523.402, 1653.587 524.388, 1656.250 526.011 C 1662.940 530.090, 1677.263 527.657, 1680.884 521.827 C 1681.645 520.601, 1685.297 506.758, 1689 491.064 C 1696.580 458.934, 1696.598 458.257, 1689.910 455.581 C 1685.129 453.668, 1679.807 453.622, 1674.684 455.449 M 748 520.060 C 680.242 524.301, 616.362 538.803, 572.417 559.919 C 542.895 574.105, 528.039 587.957, 516.029 612.500 C 506.437 632.104, 501.322 650.848, 500.280 670.218 C 499.528 684.207, 500.852 687.878, 509.903 696.898 C 515.258 702.235, 518.250 704.255, 525.514 707.442 C 569.806 726.870, 602.429 736.101, 653 743.514 C 694.144 749.545, 723.058 759.379, 746.232 775.224 C 754.388 780.800, 764.624 790.560, 767.029 795.054 C 767.962 796.798, 767.210 797.581, 760.290 802.068 C 750.025 808.722, 730.941 818.080, 718.555 822.531 C 674.432 838.389, 622.822 843.731, 523.733 842.697 C 486.658 842.310, 471.597 841.805, 466.236 840.772 C 452.724 838.167, 453.781 835.132, 470.070 829.763 C 482.066 825.808, 486.428 823.020, 484.151 820.761 C 483.253 819.871, 479.444 819.547, 471.190 819.661 C 457.626 819.848, 444.239 822.831, 434.180 827.909 C 419.944 835.095, 401.448 858.483, 397.032 874.879 C 392.697 890.980, 407.753 904.024, 439.261 911.465 C 464.927 917.527, 493.868 920.115, 536 920.114 C 587.438 920.113, 631.956 915.701, 679.799 905.863 C 701.634 901.373, 722.989 895.568, 734.622 890.961 C 773.383 875.611, 801.583 850.332, 811.770 821.806 C 813.810 816.096, 814.470 812.085, 814.792 803.443 C 815.156 793.651, 814.923 791.581, 812.753 785.341 C 803.244 757.997, 768.955 735.217, 703.465 712.737 C 678.377 704.125, 657.917 698.478, 621 689.973 C 585.600 681.818, 570.355 677.732, 564.854 674.925 C 559.082 671.981, 556.808 667.785, 557.248 660.893 C 557.959 649.782, 568.104 640.044, 590.500 628.976 C 619.206 614.789, 657.538 604.813, 707.500 598.527 C 738.149 594.671, 755.586 593.599, 788.500 593.548 C 813.185 593.510, 819.998 593.783, 821.944 594.889 L 824.389 596.278 821.444 598.627 C 819.825 599.918, 812.082 603.881, 804.238 607.432 C 783.083 617.011, 764.674 629.994, 760.745 638.107 C 756.788 646.278, 762.543 645.958, 779.376 637.071 C 799.149 626.631, 815.006 620.065, 843.068 610.699 C 857.056 606.030, 870.642 601.277, 873.259 600.137 C 882.863 595.953, 892.522 584.422, 896.127 572.840 C 898.878 564.002, 900.433 548.320, 899.063 543.233 C 896.162 532.462, 878.996 525.554, 845 521.478 C 828.833 519.540, 770.041 518.680, 748 520.060 M 1685.908 588.890 C 1670.940 594.746, 1652.968 616.034, 1651.332 629.844 C 1650.233 639.124, 1654.747 646.077, 1665 650.900 C 1680.253 658.075, 1699.575 650.306, 1713.942 631.224 C 1716.726 627.526, 1719.903 622.121, 1721.002 619.212 C 1723.322 613.072, 1723.601 604.375, 1721.630 599.657 C 1719.859 595.419, 1713.078 589.640, 1708.142 588.161 C 1702.378 586.434, 1691.253 586.799, 1685.908 588.890 M 0.441 651 C 0.441 666.675, 0.579 673.087, 0.748 665.250 C 0.917 657.413, 0.917 644.587, 0.748 636.750 C 0.579 628.913, 0.441 635.325, 0.441 651 M 1143.069 659.189 C 1130.126 664.159, 1114.994 676.082, 1100.934 692.388 C 1086.015 709.690, 1077.714 725.641, 1077.709 737.015 C 1077.704 748.475, 1082.055 753.501, 1096.857 759.135 L 1099.215 760.032 1095.414 764.766 C 1085.231 777.451, 1074.307 788.304, 1065.219 794.767 C 1011.499 832.969, 981.640 846.096, 951.354 844.828 C 939.617 844.337, 932.628 841.628, 926 835 C 919.513 828.513, 916.768 821.498, 916.214 809.989 L 915.750 800.363 927.625 796.070 C 1021.416 762.163, 1070.089 725.479, 1069.978 688.782 C 1069.941 676.495, 1065.151 669.612, 1053.332 664.861 C 1048.026 662.727, 1046.057 662.523, 1031.500 662.590 C 1016.858 662.657, 1014.510 662.929, 1003.832 665.793 C 967.473 675.546, 930.794 697.217, 896.804 729.029 C 872.987 751.322, 861.087 770.964, 856.430 795.674 C 855.145 802.487, 854.887 807.921, 855.297 819.500 C 855.922 837.155, 857.415 843.799, 863.728 857 C 867.514 864.919, 869.621 867.847, 876.385 874.589 C 889.625 887.786, 903.400 893, 925.029 893 C 962.151 893, 995.385 877.550, 1039.559 839.755 C 1045.641 834.551, 1054.866 826.231, 1060.059 821.267 C 1065.252 816.303, 1069.950 812.193, 1070.500 812.134 C 1072.607 811.908, 1092.376 795.376, 1102.260 785.576 C 1113.546 774.385, 1123.480 762.458, 1130.722 751.405 L 1135.370 744.311 1166.435 739.574 C 1183.521 736.969, 1199.236 734.461, 1201.359 734.001 L 1205.217 733.164 1202.806 735.832 C 1201.479 737.299, 1196.914 742.267, 1192.660 746.872 C 1188.407 751.476, 1180.360 760.926, 1174.779 767.872 C 1143.176 807.198, 1134.114 834.848, 1144.090 861.512 C 1146.852 868.892, 1155.255 877.968, 1162.240 881.114 C 1170.274 884.733, 1182.698 884.406, 1193.632 880.288 C 1212.004 873.370, 1235.411 857.105, 1271.238 826.366 C 1282.175 816.982, 1283.528 816.097, 1283.762 818.173 C 1287.192 848.685, 1303.634 875.693, 1325 885.913 C 1332.061 889.290, 1333.086 889.500, 1342.500 889.500 C 1351.535 889.500, 1353.205 889.193, 1359.808 886.323 C 1373.839 880.223, 1398.658 862.015, 1428.265 836.101 L 1441.031 824.928 1450.765 828.708 C 1459.934 832.268, 1461.139 832.486, 1471.500 832.472 C 1477.550 832.463, 1484.975 831.847, 1488 831.103 C 1495.128 829.349, 1505.904 824.400, 1516.403 818.058 C 1521.009 815.276, 1525.053 813, 1525.389 813 C 1525.725 813, 1526 814.535, 1526 816.412 C 1526 826.286, 1530.914 843.710, 1537.595 857.528 C 1547.612 878.244, 1562.264 888, 1583.359 888 C 1594.828 888, 1603.824 885.633, 1618 878.885 C 1637.684 869.515, 1658.247 854.237, 1682.007 831.330 C 1688.444 825.123, 1694.001 820.335, 1694.356 820.689 C 1694.710 821.043, 1695 822.333, 1695 823.555 C 1695 828.473, 1700.311 844.128, 1705.499 854.500 C 1716.355 876.205, 1732.777 890.719, 1752 895.599 C 1761.364 897.976, 1778.477 897.078, 1790.500 893.578 C 1814.825 886.498, 1843.571 868.369, 1891.679 829.771 C 1905.014 819.072, 1910.010 815.582, 1910.429 816.675 C 1910.743 817.494, 1911.006 820.714, 1911.013 823.832 C 1911.036 833.657, 1914.472 847.323, 1919.538 857.737 C 1927.846 874.815, 1942.225 886.564, 1961 891.616 C 1968.996 893.767, 1989.976 894.016, 2001 892.091 C 2012.230 890.131, 2026.185 885.449, 2038.500 879.511 C 2062.358 868.007, 2094.842 843.116, 2121.806 815.677 L 2132.113 805.189 2140.306 802.977 C 2149.279 800.554, 2165.453 797.729, 2167.642 798.202 C 2168.540 798.396, 2163.983 806.050, 2154.598 820.109 L 2140.174 841.719 2135.464 842.905 C 2129.748 844.344, 2121.347 848.448, 2118.155 851.360 C 2115.069 854.176, 2113 858.266, 2113 861.550 C 2113 864.184, 2117.937 870.164, 2120.922 871.147 C 2122.003 871.502, 2121.098 873.921, 2117.153 881.218 C 2109.487 895.395, 2106 904.447, 2106 910.169 C 2106 915.509, 2107.169 916.676, 2111.441 915.604 C 2113.086 915.191, 2115.868 912.017, 2120.003 905.834 C 2125.185 898.088, 2126.087 896.091, 2125.856 892.888 C 2125.652 890.066, 2126.571 887.230, 2129.462 881.761 L 2133.341 874.421 2145.421 874.815 C 2184.480 876.090, 2216.110 858.167, 2226.577 828.829 C 2228.802 822.595, 2229.972 810.475, 2228.954 804.219 C 2225.280 781.645, 2208.242 771.975, 2174.500 773.315 C 2158.866 773.936, 2146.362 776.255, 2129.831 781.599 L 2119.108 785.065 2113.870 794.549 L 2108.631 804.032 2094.741 813.098 C 2063.244 833.658, 2038.236 843.855, 2015.016 845.605 C 1996.176 847.026, 1982.135 840.151, 1975.287 826.154 C 1972.962 821.402, 1972.477 818.966, 1972.175 810.513 L 1971.818 800.500 1980.159 797.637 C 1997.914 791.544, 2027.243 779.449, 2043.500 771.517 C 2096.781 745.520, 2123.861 719.308, 2125.742 691.914 C 2126.386 682.536, 2125.036 678.079, 2119.845 672.447 C 2104.666 655.980, 2063.437 659.715, 2020.017 681.491 C 2005.225 688.910, 1995.307 695.161, 1979.500 707.029 C 1944.705 733.153, 1924.681 756.546, 1916.418 780.721 C 1913.925 788.015, 1912.339 791.077, 1910.177 792.771 C 1903.707 797.840, 1864.806 820.421, 1849.674 827.892 C 1821.566 841.770, 1803.775 847.138, 1785.500 847.258 C 1773.775 847.335, 1766.902 845.934, 1758.100 841.675 C 1749.959 837.735, 1743.189 831.140, 1739.464 823.520 C 1736.937 818.351, 1736.537 816.382, 1736.520 809.020 C 1736.505 802.586, 1736.972 799.549, 1738.428 796.614 C 1741.255 790.918, 1749.644 782.298, 1758.719 775.764 C 1768.110 769.002, 1813.939 741.266, 1818.139 739.802 C 1822.852 738.159, 1824 739.955, 1824 748.967 C 1824 757.755, 1825.193 759.670, 1831.283 760.659 C 1842.595 762.494, 1867.299 741.154, 1884.463 714.721 C 1895.163 698.244, 1897.691 687.190, 1892.984 677.467 C 1885.656 662.330, 1866.614 657.848, 1842.828 665.661 C 1832.462 669.066, 1805.882 682.370, 1792.199 691.002 C 1771.212 704.241, 1741.854 727.445, 1722.705 745.928 C 1705.764 762.281, 1699.438 771.709, 1695.480 786.500 L 1693.340 794.500 1679.836 803.500 C 1663.592 814.326, 1646.901 823.816, 1637.853 827.370 C 1615.063 836.322, 1593.088 834.413, 1582.135 822.530 C 1577.259 817.241, 1575.602 812.323, 1576.258 805.091 C 1577.374 792.787, 1583.077 785.811, 1611 762.590 C 1630.578 746.310, 1635.670 741.434, 1643.467 731.500 C 1672.123 694.988, 1673.281 676.991, 1647.082 675.298 C 1632.856 674.378, 1616.864 679.803, 1600.277 691.175 C 1583.407 702.741, 1556.529 731.843, 1540.561 755.833 C 1533.865 765.892, 1527.032 781.981, 1527.009 787.740 C 1526.997 790.673, 1520.494 795.439, 1507.408 802.104 C 1498.909 806.433, 1496.226 807.320, 1490.408 807.721 C 1483.933 808.168, 1483.240 808.008, 1479.353 805.167 C 1477.072 803.501, 1473.986 800.537, 1472.495 798.582 L 1469.784 795.028 1472.642 791.614 C 1493.929 766.192, 1503.948 751.921, 1511.860 735.758 C 1524.224 710.499, 1526.285 691.089, 1517.351 684.061 C 1513.698 681.188, 1507.005 680.470, 1501.467 682.356 C 1485.544 687.782, 1450.643 724.078, 1433.575 752.963 C 1426.792 764.442, 1423.575 772.434, 1421.438 783.117 C 1420.515 787.728, 1419.252 792.131, 1418.631 792.903 C 1416.334 795.756, 1384.136 820.969, 1373.336 828.372 C 1358.836 838.311, 1350.216 842.369, 1343.907 842.225 C 1334.701 842.015, 1330.124 837.598, 1329.296 828.123 C 1328.832 822.806, 1329.955 817.119, 1336.074 793.815 C 1336.843 790.887, 1338.444 789.110, 1343.866 785.167 C 1379.431 759.299, 1414.383 717.452, 1416.689 697.978 C 1417.208 693.595, 1416.978 692.606, 1414.937 690.433 C 1410.892 686.127, 1400.285 683.500, 1386.947 683.500 C 1375.533 683.500, 1375.298 683.547, 1367.447 687.411 C 1360.392 690.883, 1357.580 693.241, 1342.395 708.411 C 1313.311 737.469, 1296.576 761.034, 1288.112 784.847 L 1285.500 792.198 1271.642 801.021 C 1256.652 810.565, 1239.066 819.763, 1229.500 823.062 C 1221.809 825.715, 1210.842 826.596, 1205.060 825.026 C 1202.479 824.325, 1199.187 822.387, 1197.195 820.395 C 1193.876 817.076, 1193.782 816.766, 1194.182 810.486 C 1194.524 805.106, 1195.483 802.257, 1199.814 793.751 C 1209.079 775.557, 1216.256 766.580, 1241.590 741.500 C 1264.197 719.119, 1266.405 716.574, 1267.965 711.111 C 1269.799 704.683, 1265.479 686.939, 1260.487 680.394 C 1255.734 674.162, 1253.556 673.633, 1235.519 674.321 C 1222.461 674.819, 1178.298 679.406, 1155.526 682.629 L 1150.552 683.333 1152.133 680.917 C 1160.859 667.584, 1163.014 660.946, 1159.461 658.348 C 1156.796 656.399, 1149.339 656.782, 1143.069 659.189 M 1002.500 697.909 C 994.296 700.877, 979.999 708.419, 970.453 714.814 C 952.480 726.854, 937.324 741.920, 928.824 756.194 C 924.688 763.140, 919.651 776.146, 920.190 778.484 C 920.568 780.122, 939.612 772.883, 953.850 765.691 C 978.815 753.080, 1001.469 734.623, 1012.750 717.706 C 1019.025 708.294, 1020.860 702.649, 1018.827 699 C 1017.663 696.910, 1016.619 696.467, 1012.467 696.300 C 1009.684 696.188, 1005.302 696.896, 1002.500 697.909 M 2060 697.910 C 2028.513 708.230, 1991.763 738.938, 1980.546 764.301 C 1977.163 771.951, 1974.899 780, 1976.130 780 C 1976.693 780, 1982.195 778.028, 1988.358 775.619 C 2023.191 761.999, 2053.415 740.528, 2067.923 719.095 C 2073.567 710.758, 2075 707.520, 2075 703.106 C 2075 696.140, 2070.333 694.523, 2060 697.910 M 2175.994 799.250 C 2175.977 803.169, 2172.962 809.280, 2164.034 823.495 C 2158.545 832.235, 2154.154 839.472, 2154.277 839.577 C 2154.399 839.681, 2157.200 839.393, 2160.500 838.935 C 2164.139 838.430, 2166.874 838.476, 2167.450 839.052 C 2168.997 840.596, 2166.988 841.640, 2160 842.922 C 2150.389 844.684, 2150.136 844.813, 2147.983 849.033 C 2146.892 851.171, 2146 853.221, 2146 853.588 C 2146 853.956, 2152.188 854.020, 2159.750 853.731 C 2175.152 853.142, 2181.854 851.650, 2192.858 846.359 C 2210.121 838.058, 2222.640 818.042, 2217.074 807.640 C 2214.015 801.922, 2200.648 798.063, 2183.750 798.020 C 2178.209 798.006, 2175.998 798.356, 2175.994 799.250 M 2386 820.685 C 2383.116 821.780, 2380.048 825.324, 2378.893 828.897 C 2377.652 832.736, 2373.762 837.421, 2355.974 856.500 C 2344.184 869.146, 2337.070 875, 2333.491 875 C 2330.094 875, 2329.927 874.077, 2332.433 869.128 C 2335.732 862.614, 2338 854.430, 2338 849.041 C 2338 844.271, 2335.888 840, 2333.530 840 C 2332.430 840, 2332.393 839.417, 2333.337 836.913 C 2334.383 834.137, 2334.262 833.632, 2332.139 831.913 C 2330.435 830.532, 2328.203 830, 2324.111 830 C 2311.287 830, 2293.983 842.920, 2285.744 858.646 C 2283.685 862.577, 2282 866.674, 2282 867.751 C 2282 869.010, 2279.870 871.204, 2276.045 873.887 C 2265.127 881.546, 2258.731 882.759, 2257.392 877.426 C 2256.432 873.600, 2262.761 861.876, 2270.577 853 C 2277.079 845.617, 2277.175 845.424, 2276.730 840.667 C 2276.438 837.543, 2275.534 835.090, 2274.177 833.732 C 2272.137 831.693, 2271.759 831.668, 2261.288 832.873 C 2255.355 833.555, 2249.490 834.361, 2248.256 834.664 C 2246.059 835.202, 2246.043 835.142, 2247.467 831.734 C 2248.266 829.820, 2248.639 827.972, 2248.294 827.627 C 2243.495 822.829, 2226 842.205, 2226 852.317 C 2226 854.930, 2226.675 856.386, 2228.584 857.887 C 2231.391 860.095, 2231.335 860.351, 2226.767 866.226 C 2224.619 868.989, 2223.958 870.799, 2224.212 873.226 L 2224.555 876.500 2230.118 870.671 C 2233.178 867.466, 2236.991 862.644, 2238.591 859.957 C 2241.685 854.759, 2241.632 854.783, 2255.366 852.404 L 2259.231 851.734 2253.609 859.758 C 2245.935 870.709, 2242.834 877.999, 2242.867 885.004 C 2242.897 891.377, 2243.957 894.789, 2246.635 897.132 C 2252.255 902.049, 2258.446 899.525, 2271.324 887.067 C 2276.479 882.080, 2280.990 878, 2281.348 878 C 2281.707 878, 2282.004 878.788, 2282.010 879.750 C 2282.022 882.026, 2286.654 891.959, 2288.818 894.353 C 2291.332 897.132, 2297.514 900, 2300.992 900 C 2306.014 900, 2310.743 897.413, 2317.394 891.026 C 2322.768 885.866, 2324.203 885, 2327.385 885 C 2331.481 885, 2335.916 883.043, 2340.500 879.212 C 2343.289 876.881, 2343.522 876.838, 2343.815 878.602 C 2344.676 883.783, 2346.635 887.734, 2350.337 891.750 C 2363.032 905.522, 2376.564 902.657, 2400.749 881.076 C 2405.989 876.401, 2406.999 874.975, 2406.999 872.250 C 2407 870.462, 2406.765 869, 2406.479 869 C 2406.192 869, 2403.121 871.229, 2399.655 873.953 C 2391.763 880.155, 2384.522 883.830, 2378.592 884.642 C 2372.883 885.425, 2372.689 884.180, 2377.952 880.533 C 2384.375 876.082, 2391.919 867.420, 2394.742 861.253 C 2398.046 854.035, 2398.137 846.792, 2395.070 835.066 C 2393.856 830.427, 2393.064 825.864, 2393.309 824.926 C 2393.554 823.989, 2393.468 822.757, 2393.117 822.190 C 2392.300 820.867, 2387.947 819.947, 2386 820.685 M 2365.204 856.295 L 2352.949 868.580 2356.472 869.854 C 2358.421 870.558, 2361.201 872.776, 2362.693 874.814 C 2364.176 876.841, 2365.700 878.876, 2366.080 879.335 C 2367.099 880.568, 2372.381 877.524, 2375.355 873.990 C 2379.079 869.565, 2380.319 863.900, 2379.494 855.090 C 2378.320 842.561, 2378.959 842.507, 2365.204 856.295 M 2315.533 849.587 C 2300.315 859.583, 2297 863.721, 2294.865 875.381 C 2293.637 882.091, 2293.663 882.309, 2295.914 884.131 C 2299.359 886.921, 2304.590 886.493, 2310.451 882.940 L 2315.500 879.880 2315.500 870.190 C 2315.500 860.985, 2315.687 860.128, 2319.242 853.076 C 2321.301 848.992, 2322.854 845.521, 2322.695 845.362 C 2322.536 845.202, 2319.313 847.104, 2315.533 849.587 M 1308.510 1048.110 C 1301.827 1049.472, 1292.452 1054.055, 1287.278 1058.489 C 1284.563 1060.816, 1281.707 1064.837, 1279.278 1069.753 L 1275.500 1077.397 1275.500 1128.501 L 1275.500 1179.605 1279.278 1187.248 C 1287.305 1203.490, 1302.332 1210.785, 1325.500 1209.689 C 1342.638 1208.878, 1353.912 1203.802, 1360.793 1193.800 C 1366.602 1185.356, 1367 1182.676, 1367 1151.965 L 1367 1124 1343 1124 L 1319 1124 1319 1136 L 1319 1148 1327.500 1148 L 1336 1148 1336 1160.599 C 1336 1170.001, 1335.600 1174.041, 1334.423 1176.522 C 1330.236 1185.345, 1314.251 1185.007, 1309.752 1176 C 1308.165 1172.825, 1308.003 1168.358, 1308.002 1127.898 L 1308 1083.296 1310.280 1079.912 C 1311.534 1078.052, 1313.672 1075.967, 1315.030 1075.279 C 1318.477 1073.535, 1326.554 1073.695, 1330.540 1075.586 C 1335.938 1078.148, 1337.352 1081.285, 1337.823 1091.750 L 1338.239 1101 1352.619 1101 L 1367 1101 1367 1089.038 C 1367 1074.798, 1365.212 1068.794, 1358.800 1061.510 C 1350.339 1051.898, 1340.811 1047.994, 1324.500 1047.456 C 1318.450 1047.257, 1311.255 1047.551, 1308.510 1048.110 M 1824 1048.053 C 1810.188 1050.443, 1796.626 1060.853, 1791.821 1072.753 L 1789.500 1078.500 1789.500 1129 C 1789.500 1179.307, 1789.509 1179.522, 1791.789 1185.161 C 1794.800 1192.610, 1798.904 1197.667, 1805.644 1202.234 C 1813.462 1207.532, 1819.623 1209.215, 1833.143 1209.747 C 1849.266 1210.380, 1859.071 1207.448, 1868.100 1199.290 C 1876.655 1191.562, 1879.970 1182.209, 1879.988 1165.750 L 1880 1155 1865.619 1155 L 1851.239 1155 1850.824 1164.488 C 1850.357 1175.164, 1848.933 1178.187, 1842.929 1181.248 C 1836.312 1184.622, 1828.528 1182.475, 1824.270 1176.102 L 1822 1172.704 1822 1128.753 C 1822 1078.448, 1821.879 1079.268, 1829.791 1075.768 C 1838.187 1072.054, 1847.759 1075.872, 1849.965 1083.814 C 1850.528 1085.841, 1850.991 1090.987, 1850.994 1095.250 L 1851 1103 1865.596 1103 L 1880.192 1103 1879.837 1089.250 C 1879.520 1076.972, 1879.204 1074.906, 1876.890 1069.954 C 1870.128 1055.488, 1857.891 1048.228, 1839 1047.478 C 1833.775 1047.271, 1827.025 1047.530, 1824 1048.053 M 2191.500 1048.073 C 2175.816 1050.705, 2164.173 1059, 2158.160 1071.825 L 2155.500 1077.500 2155.205 1126.302 C 2154.876 1180.895, 2155.074 1182.973, 2161.547 1192.752 C 2169.148 1204.236, 2182.517 1210.200, 2200.843 1210.283 C 2216.384 1210.354, 2228.392 1205.807, 2236.509 1196.779 C 2243.108 1189.439, 2245.159 1183.005, 2245.762 1167.750 L 2246.265 1155 2231.133 1155 L 2216 1155 2215.985 1164.250 C 2215.977 1169.598, 2215.449 1174.514, 2214.735 1175.904 C 2210.234 1184.663, 2195.151 1185.216, 2190.026 1176.810 C 2188.081 1173.620, 2188.007 1171.871, 2188.004 1128.700 C 2188.001 1090.607, 2188.227 1083.462, 2189.517 1080.967 C 2193.949 1072.397, 2210.149 1072.587, 2214.635 1081.261 C 2215.688 1083.297, 2216.483 1087.908, 2216.788 1093.745 L 2217.273 1103 2231.636 1103 L 2246 1103 2246 1092.210 C 2246 1079.553, 2244.208 1071.557, 2239.848 1064.763 C 2231.214 1051.308, 2211.917 1044.647, 2191.500 1048.073 M 557 1127.934 L 557 1207 573 1207 L 589 1207 589 1178.633 L 589 1150.265 601.750 1149.732 C 616.348 1149.122, 622.984 1147.419, 629.177 1142.696 C 641.744 1133.110, 646.738 1118.131, 645.746 1093 C 645.349 1082.947, 644.760 1079.172, 642.737 1073.714 C 638.323 1061.806, 632.851 1055.793, 622.632 1051.625 C 617.889 1049.690, 615.209 1049.507, 587.250 1049.200 L 557 1048.868 557 1127.934 M 663 1128 L 663 1207 702.500 1207 L 742 1207 742 1194.018 L 742 1181.037 718.750 1180.768 L 695.500 1180.500 695.243 1114.750 L 694.986 1049 678.993 1049 L 663 1049 663 1128 M 753.216 1114.750 L 753.500 1180.500 755.896 1186.449 C 761.918 1201.399, 777.074 1209.965, 797.500 1209.965 C 821.943 1209.965, 839.565 1197.515, 843.876 1177.201 C 844.638 1173.606, 845 1152.141, 845 1110.451 L 845 1049 829.500 1049 L 814 1049 814 1109.935 C 814 1150.669, 813.646 1171.803, 812.933 1173.685 C 808.053 1186.567, 789.791 1185.080, 786.099 1171.500 C 785.373 1168.830, 785.009 1147.796, 785.006 1108.250 L 785 1049 768.966 1049 L 752.932 1049 753.216 1114.750 M 864 1128.480 L 864 1208 878 1208 L 892 1208 892.102 1152.250 L 892.204 1096.500 894.513 1104 C 895.783 1108.125, 900.084 1123.313, 904.072 1137.750 L 911.322 1164 922.475 1164 L 933.627 1164 942.563 1130.875 L 951.500 1097.751 951.758 1152.875 L 952.017 1208 966.508 1208 L 981 1208 981 1128.500 L 981 1049 961.250 1049 L 941.500 1049.001 932.633 1079.750 C 927.757 1096.663, 923.482 1110.810, 923.133 1111.189 C 922.785 1111.568, 918.617 1097.843, 913.872 1080.689 L 905.243 1049.500 884.622 1049.230 L 864 1048.959 864 1128.480 M 1000 1128.586 L 1000 1208.171 1031.250 1207.742 C 1064.948 1207.279, 1066.762 1207.027, 1074.644 1201.723 C 1080.997 1197.448, 1085.292 1191.587, 1088.144 1183.302 C 1091.358 1173.963, 1091.546 1154.332, 1088.500 1146.085 C 1085.937 1139.145, 1079.289 1131.728, 1073.498 1129.347 C 1071.028 1128.331, 1069.032 1127.275, 1069.062 1127 C 1069.093 1126.725, 1071.453 1125.358, 1074.309 1123.961 C 1080.881 1120.747, 1086.273 1113.218, 1088.606 1104 C 1090.612 1096.071, 1090.047 1077.960, 1087.576 1071 C 1083.682 1060.030, 1074.245 1052.246, 1062.114 1049.998 C 1059.151 1049.449, 1043.963 1049, 1028.364 1049 L 1000 1049 1000 1128.586 M 1109 1128.500 L 1109 1208 1125 1208 L 1141 1208 1141 1128.500 L 1141 1049 1125 1049 L 1109 1049 1109 1128.500 M 1161 1128.500 L 1161 1208 1174.990 1208 L 1188.981 1208 1189.240 1160.250 L 1189.500 1112.500 1208.646 1160 L 1227.792 1207.500 1242.396 1207.777 L 1257 1208.053 1257 1128.527 L 1257 1049 1243 1049 L 1229 1049 1228.866 1055.750 C 1228.792 1059.463, 1228.454 1078.403, 1228.116 1097.839 L 1227.500 1133.179 1210.544 1091.089 L 1193.588 1049 1177.294 1049 L 1161 1049 1161 1128.500 M 1508 1128.500 L 1508 1208 1547.500 1208 L 1587 1208 1587 1194.518 L 1587 1181.037 1563.750 1180.768 L 1540.500 1180.500 1540.229 1160.250 L 1539.959 1140 1558.479 1140 L 1577 1140 1577 1126.500 L 1577 1113 1558.500 1113 L 1540 1113 1540 1094.500 L 1540 1076 1563.500 1076 L 1587 1076 1587 1062.500 L 1587 1049 1547.500 1049 L 1508 1049 1508 1128.500 M 1604 1128.500 L 1604 1208 1643 1208 L 1682 1208 1682 1194.500 L 1682 1181 1659 1181 L 1636 1181 1636 1115 L 1636 1049 1620 1049 L 1604 1049 1604 1128.500 M 1698 1129 L 1698 1208 1737 1208 L 1776 1208 1776 1194.500 L 1776 1181 1753 1181 L 1730 1181 1730 1160.500 L 1730 1140 1748 1140 L 1766 1140 1766 1126.500 L 1766 1113 1748 1113 L 1730 1113 1730 1094.500 L 1730 1076 1753 1076 L 1776 1076 1776 1063 L 1776 1050 1737 1050 L 1698 1050 1698 1129 M 1888 1063 L 1888 1076 1903.500 1076 L 1919 1076 1919 1142 L 1919 1208 1934.993 1208 L 1950.986 1208 1951.243 1142.250 L 1951.500 1076.500 1966.750 1076.224 L 1982 1075.948 1982 1062.974 L 1982 1050 1935 1050 L 1888 1050 1888 1063 M 1996 1128.935 L 1996 1208 2012 1208 L 2028 1208 2028 1176.500 L 2028 1145 2033.358 1145 L 2038.715 1145 2047.032 1176.500 L 2055.348 1208 2072.241 1208 L 2089.135 1208 2088.398 1205.750 C 2085.987 1198.382, 2068.093 1138.596, 2068.277 1138.521 C 2071.042 1137.392, 2078.255 1129.948, 2080.396 1126.014 C 2088.311 1111.472, 2089.097 1086.454, 2082.111 1071.453 C 2078.081 1062.798, 2073.918 1058.563, 2065.207 1054.256 L 2057.611 1050.500 2026.806 1050.185 L 1996 1049.870 1996 1128.935 M 2105 1129 L 2105 1208 2121 1208 L 2137 1208 2137 1129 L 2137 1050 2121 1050 L 2105 1050 2105 1129 M 1032.485 1075.179 C 1032.193 1075.939, 1032.077 1085.098, 1032.227 1095.531 L 1032.500 1114.500 1040.680 1114.500 C 1047.396 1114.500, 1049.364 1114.128, 1051.680 1112.419 C 1055.344 1109.714, 1057.900 1102.261, 1057.956 1094.116 C 1058.013 1085.905, 1056.445 1080.800, 1052.791 1077.300 C 1050.148 1074.766, 1049.068 1074.466, 1041.443 1074.148 C 1034.945 1073.876, 1032.894 1074.112, 1032.485 1075.179 M 589 1099.397 L 589 1124 596.250 1123.996 C 608.396 1123.990, 612.033 1120.185, 614.141 1105.278 C 615.747 1093.918, 613.982 1084.042, 609.463 1079.111 C 606.224 1075.577, 605.972 1075.493, 597.577 1075.147 L 589 1074.795 589 1099.397 M 2028 1099 L 2028 1122 2035.250 1121.998 C 2044.888 1121.996, 2048.724 1120.065, 2051.927 1113.602 C 2053.942 1109.537, 2054.364 1107.158, 2054.408 1099.602 C 2054.471 1088.905, 2052.446 1082.394, 2047.851 1078.528 C 2045.158 1076.262, 2043.974 1076, 2036.423 1076 L 2028 1076 2028 1099 M 1415 1141 L 1415 1152 1437 1152 L 1459 1152 1459 1141 L 1459 1130 1437 1130 L 1415 1130 1415 1141 M 1032 1161.500 L 1032 1182 1040.050 1182 C 1045.183 1182, 1049.131 1181.466, 1050.947 1180.527 C 1060.228 1175.728, 1061.121 1149.960, 1052.249 1142.981 C 1050.168 1141.345, 1048.188 1141, 1040.865 1141 L 1032 1141 1032 1161.500" stroke="none" fill="#be2023" fill-rule="evenodd"/><path d="M 1116.992 109.940 C 1099.822 112.262, 1086.101 121.688, 1080.804 134.798 C 1078.503 140.492, 1078.500 140.575, 1078.500 191.500 L 1078.500 242.500 1081.686 249.225 C 1088.907 264.468, 1104.589 272.965, 1125.500 272.965 C 1145.113 272.965, 1159.636 265.573, 1166.200 252.250 L 1169.500 245.553 1170 216.527 C 1170.275 200.562, 1170.244 187.154, 1169.931 186.731 C 1169.618 186.308, 1158.818 186.083, 1145.931 186.231 L 1122.500 186.500 1122.500 198.500 L 1122.500 210.500 1130.750 210.147 L 1139 209.795 1138.985 223.147 C 1138.976 231.753, 1138.531 237.355, 1137.735 238.904 C 1135.508 243.237, 1131.442 245.429, 1125.626 245.429 C 1119.503 245.429, 1115.891 243.509, 1112.956 238.696 C 1111.102 235.655, 1111.007 233.348, 1111.007 191 C 1111.007 148.652, 1111.102 146.345, 1112.956 143.304 C 1114.028 141.547, 1116.119 139.313, 1117.604 138.340 C 1121.087 136.058, 1129.420 136.054, 1133.741 138.333 C 1139.053 141.134, 1140.371 144.167, 1140.829 154.645 L 1141.239 164 1155.715 164 L 1170.192 164 1169.840 150.250 C 1169.496 136.788, 1169.416 136.367, 1166.060 130.166 C 1162.470 123.534, 1157.400 118.702, 1150.249 115.100 C 1141.680 110.783, 1127.278 108.549, 1116.992 109.940 M 1341.322 111.527 C 1333.638 113.598, 1327.626 116.697, 1322.441 121.261 C 1316.917 126.123, 1313.973 130.590, 1311.405 138 C 1309.634 143.112, 1309.500 146.886, 1309.500 191.500 C 1309.500 234.325, 1309.688 240.107, 1311.243 245.131 C 1316.436 261.902, 1330.844 271.523, 1352.500 272.678 C 1363.516 273.266, 1372.815 271.666, 1380.163 267.917 C 1386.437 264.716, 1393.328 257.702, 1396.511 251.278 C 1399.083 246.086, 1399.438 244.131, 1400.015 232 C 1400.367 224.575, 1400.482 218.162, 1400.269 217.750 C 1400.056 217.338, 1393.384 217, 1385.441 217 L 1371 217 1370.996 226.250 C 1370.992 236.702, 1369.381 240.718, 1364.094 243.451 C 1360.275 245.426, 1352.755 245.442, 1348.967 243.483 C 1342.566 240.173, 1342.530 239.908, 1342.209 193.259 C 1342.026 166.608, 1342.297 149.612, 1342.943 147.211 C 1345.196 138.845, 1354.622 134.726, 1363.257 138.334 C 1369.288 140.854, 1370.992 144.798, 1370.996 156.250 L 1371 166 1385.592 166 L 1400.183 166 1399.842 151.250 C 1399.517 137.252, 1399.350 136.205, 1396.564 130.706 C 1391.643 120.995, 1383.241 114.600, 1371.320 111.495 C 1364.174 109.634, 1348.285 109.651, 1341.322 111.527 M 1447.112 111.581 C 1434.448 114.987, 1424.130 123.099, 1419.455 133.325 C 1415.337 142.334, 1414.842 149.758, 1415.229 196.681 C 1415.574 238.564, 1415.685 240.753, 1417.735 246.233 C 1424.459 264.201, 1439.126 272.960, 1462.500 272.968 C 1482.232 272.974, 1497.402 265.193, 1504.719 251.313 C 1509.712 241.840, 1510 238.549, 1510 191 C 1510 143.444, 1509.712 140.161, 1504.714 130.679 C 1497.442 116.884, 1483.215 109.930, 1462.540 110.066 C 1457.018 110.102, 1450.076 110.784, 1447.112 111.581 M 1558.112 111.581 C 1541.310 116.099, 1530.073 127.797, 1527.008 143.960 C 1525.348 152.711, 1525.731 233.067, 1527.471 241.280 C 1531.828 261.840, 1547.818 272.970, 1573 272.970 C 1598.571 272.970, 1615.935 260.432, 1619.992 239.040 C 1621.321 232.034, 1621.321 149.966, 1619.992 142.960 C 1615.943 121.607, 1599.334 109.892, 1573.356 110.066 C 1567.935 110.102, 1561.076 110.784, 1558.112 111.581 M 1934.500 110.680 C 1921.682 113.548, 1910.496 120.409, 1905.281 128.601 C 1898.998 138.472, 1898.897 139.553, 1899.214 193.631 C 1899.497 242.005, 1899.523 242.558, 1901.804 248.202 C 1906.463 259.733, 1918.633 269.121, 1932.711 272.044 C 1940.081 273.574, 1958.812 272.754, 1965.651 270.602 C 1976.647 267.142, 1986.253 257.830, 1989.378 247.603 C 1990.594 243.621, 1990.999 236.403, 1991.218 214.749 L 1991.500 186.998 1967.250 186.999 L 1943 187 1943 199 L 1943 211 1951.500 211 L 1960 211 1960 223.599 C 1960 233.001, 1959.600 237.041, 1958.423 239.522 C 1954.418 247.962, 1939.106 248.143, 1934.026 239.810 C 1932.081 236.620, 1932.007 234.871, 1932.004 191.700 C 1932 142.251, 1931.929 142.843, 1938.299 138.960 C 1942.108 136.637, 1949.854 136.356, 1953.802 138.398 C 1959.537 141.363, 1960.461 143.411, 1961 154.350 C 1961.480 164.088, 1961.591 164.497, 1963.750 164.429 C 1964.987 164.389, 1971.669 164.277, 1978.598 164.179 L 1991.196 164 1990.848 150.750 C 1990.531 138.679, 1990.253 136.998, 1987.730 131.858 C 1982.859 121.940, 1972.721 114.561, 1959.769 111.508 C 1953.950 110.136, 1939.104 109.649, 1934.500 110.680 M 2251.721 111.567 C 2238.214 114.839, 2227.741 122.684, 2222.441 133.500 L 2219.500 139.500 2219.500 192.021 L 2219.500 244.542 2222.787 251.218 C 2230.425 266.735, 2245.337 273.743, 2268.666 272.780 C 2285.620 272.080, 2296.966 266.324, 2303.778 254.965 C 2308.379 247.294, 2309.283 243.197, 2309.399 229.500 L 2309.500 217.500 2295 217.500 L 2280.500 217.500 2280 227.500 C 2279.721 233.074, 2278.909 238.537, 2278.164 239.844 C 2276.161 243.361, 2268.624 246.355, 2263.740 245.574 C 2258.342 244.711, 2256.245 243.450, 2253.950 239.686 C 2252.103 236.656, 2252.007 234.298, 2252.007 191.500 C 2252.007 148.702, 2252.103 146.344, 2253.950 143.314 C 2257.557 137.398, 2264.986 135.573, 2272.294 138.806 C 2278.690 141.635, 2280 144.636, 2280 156.450 L 2280 166 2295 166 L 2310 166 2309.994 156.750 C 2309.983 139.172, 2307.203 130.151, 2299.390 122.337 C 2288.933 111.881, 2269.008 107.379, 2251.721 111.567 M 729.721 111.649 C 729.191 112.513, 697.445 263.425, 696.833 267.987 L 696.500 270.474 711 270.139 C 718.975 269.955, 725.686 269.625, 725.913 269.405 C 726.141 269.186, 727.729 261.468, 729.444 252.253 L 732.561 235.500 749.158 235.226 L 765.755 234.953 767.478 244.726 C 768.426 250.102, 769.943 258.073, 770.850 262.440 L 772.500 270.379 788.500 270.106 C 797.300 269.955, 804.606 269.727, 804.735 269.598 C 804.864 269.469, 797.892 233.956, 789.241 190.682 L 773.512 112 754.881 112 C 744.634 112, 734.898 111.730, 733.246 111.399 C 731.594 111.069, 730.008 111.181, 729.721 111.649 M 2185.502 113.250 C 2185.206 114.487, 2177.319 157.125, 2167.974 208 C 2158.629 258.875, 2150.712 301.962, 2150.380 303.750 L 2149.777 307 2159.870 307 C 2169.514 307, 2169.985 306.900, 2170.487 304.750 C 2171.590 300.020, 2205 113.907, 2205 112.491 C 2205 111.274, 2203.255 111, 2195.519 111 C 2186.513 111, 2186.011 111.113, 2185.502 113.250 M 494 191 L 494 270 510 270 L 526 270 526 237.500 L 526 205 540 205 L 554 205 554 237.441 C 554 255.284, 554.337 270.026, 554.750 270.203 C 555.163 270.380, 562.587 270.375, 571.250 270.192 L 587 269.859 587 190.930 L 587 112 570.500 112 L 554 112 554 144 L 554 176 540 176 L 526 176 526 144 L 526 112 510 112 L 494 112 494 191 M 606 191.625 L 606 271.250 609.125 270.625 C 610.844 270.281, 628.619 270, 648.625 270 L 685 270 685 256.500 L 685 243 661.479 243 L 637.959 243 638.229 222.750 L 638.500 202.500 656.750 202.227 L 675 201.955 675 188.390 L 675 174.825 656.750 175.119 L 638.500 175.413 638.500 156.957 L 638.500 138.500 661.250 138.231 L 684 137.962 684 128.106 C 684 122.685, 684.281 116.844, 684.625 115.125 L 685.250 112 645.625 112 L 606 112 606 191.625 M 804 125.250 L 803.999 138.500 819.064 138.500 L 834.129 138.500 834.031 204.170 C 833.977 240.289, 834.286 270.008, 834.717 270.211 C 835.148 270.415, 842.584 270.410, 851.243 270.201 L 866.986 269.821 867.243 204.160 L 867.500 138.500 882.750 138.224 L 898 137.948 898 124.974 L 898 112 851 112 L 804 112 804 125.250 M 911 190.941 C 911 234.359, 911.337 270.039, 911.750 270.232 C 912.163 270.424, 919.587 270.410, 928.250 270.201 L 944 269.821 944 190.910 L 944 112 927.500 112 L 911 112 911 190.941 M 963 190.941 C 963 234.359, 963.337 270.031, 963.750 270.214 C 964.163 270.397, 970.688 270.389, 978.250 270.196 L 992 269.845 992 222.756 C 992 196.857, 992.267 175.934, 992.594 176.260 C 992.920 176.587, 1001.656 197.924, 1012.007 223.677 C 1022.359 249.430, 1031.316 270.455, 1031.914 270.400 C 1032.511 270.345, 1039.075 270.233, 1046.500 270.150 L 1060 270 1060 191 L 1060 112 1045.511 112 L 1031.022 112 1030.761 153.856 L 1030.500 195.713 1013.560 153.856 L 996.621 112 979.810 112 L 963 112 963 190.941 M 1639 191.500 L 1639 271 1678 271 L 1717 271 1717 260.625 C 1717 254.919, 1717.281 248.844, 1717.625 247.125 L 1718.250 244 1694.625 244 L 1671 244 1671 178 L 1671 112 1655 112 L 1639 112 1639 191.500 M 1732.667 112.667 C 1732.300 113.033, 1732 148.808, 1732 192.167 L 1732 271 1748.500 271 L 1765 271 1765 191.500 L 1765 112 1749.167 112 C 1740.458 112, 1733.033 112.300, 1732.667 112.667 M 1784.667 112.667 C 1784.300 113.033, 1784 148.808, 1784 192.167 L 1784 271 1798.490 271 L 1812.981 271 1813.240 223.394 L 1813.500 175.788 1832.551 223.144 L 1851.602 270.500 1866.301 270.777 L 1881 271.053 1881 191.527 L 1881 112 1866.511 112 L 1852.022 112 1851.761 154.194 L 1851.500 196.389 1834.500 154.210 L 1817.500 112.032 1801.417 112.016 C 1792.571 112.007, 1785.033 112.300, 1784.667 112.667 M 2070.035 117.231 C 2067.090 130.858, 2038 270.014, 2038 270.475 C 2038 270.764, 2044.696 271, 2052.880 271 L 2067.760 271 2070.474 256.250 C 2071.967 248.137, 2073.512 240.150, 2073.908 238.500 L 2074.627 235.500 2090.993 235.500 L 2107.358 235.500 2110.633 253 C 2112.434 262.625, 2113.928 270.613, 2113.954 270.750 C 2113.979 270.887, 2121.434 271, 2130.519 271 L 2147.038 271 2146.495 268.750 C 2146.196 267.512, 2139.037 231.850, 2130.587 189.500 L 2115.222 112.500 2093.198 112.231 L 2071.174 111.962 2070.035 117.231 M 1456.071 138.752 C 1454.185 139.713, 1451.710 141.770, 1450.571 143.322 C 1448.563 146.058, 1448.491 147.463, 1448.209 189.320 C 1447.951 227.555, 1448.107 232.992, 1449.574 236.833 C 1451.705 242.414, 1455.802 244.996, 1462.500 244.982 C 1468.663 244.968, 1471.766 243.472, 1474.720 239.088 L 1477 235.704 1477 191.302 C 1477 141.216, 1477.156 142.336, 1469.684 138.943 C 1464.446 136.566, 1460.468 136.509, 1456.071 138.752 M 1567.071 138.752 C 1565.185 139.713, 1562.710 141.770, 1561.571 143.322 C 1559.563 146.058, 1559.491 147.459, 1559.214 189.322 C 1558.962 227.489, 1559.120 233.003, 1560.579 236.835 C 1562.704 242.413, 1566.800 244.996, 1573.500 244.982 C 1579.663 244.968, 1582.766 243.472, 1585.720 239.088 L 1588 235.704 1588 191.753 C 1588 141.828, 1588.066 142.297, 1580.576 138.895 C 1575.444 136.564, 1571.444 136.522, 1567.071 138.752 M 748.607 150.678 C 748.286 152.230, 745.988 164.975, 743.500 179 C 741.012 193.025, 738.748 205.512, 738.469 206.750 C 737.967 208.979, 738.065 209, 749.109 209 L 760.256 209 759.628 205.250 C 753.986 171.510, 749.967 148.634, 749.622 148.288 C 749.384 148.051, 748.928 149.127, 748.607 150.678 M 2090.652 150 C 2089.850 153.001, 2080 207.553, 2080 208.993 C 2080 209.608, 2084.309 210, 2091.079 210 L 2102.159 210 2101.590 207.250 C 2101.276 205.738, 2098.984 192.350, 2096.496 177.500 C 2091.015 144.794, 2091.471 146.936, 2090.652 150 M 1218 203.500 L 1218 215 1240 215 L 1262 215 1262 203.500 L 1262 192 1240 192 L 1218 192 1218 203.500 M 318.500 355.552 C 233.275 367.026, 164.025 429.387, 143.661 513 C 137.885 536.715, 137.909 536.028, 138.241 664.076 C 138.543 780.950, 138.555 781.552, 140.777 792.706 C 149.449 836.247, 168.802 872.999, 198.904 903.092 C 233.167 937.345, 275.826 957.731, 324 962.873 C 330.318 963.547, 690.768 964.115, 1400 964.568 C 2395.599 965.205, 2467.459 965.138, 2480.931 963.568 C 2576.087 952.474, 2650.127 879.569, 2663.482 783.814 C 2665.700 767.909, 2665.715 550.787, 2663.499 535.196 C 2658.062 496.948, 2642.439 460.946, 2618.276 430.985 C 2610.530 421.380, 2592.696 404.166, 2582.791 396.734 C 2561.100 380.458, 2535.396 367.967, 2510.500 361.603 C 2485.664 355.254, 2505.174 355.768, 2259.500 354.983 C 2136.300 354.589, 1651.425 354.254, 1182 354.237 C 472.142 354.211, 326.817 354.433, 318.500 355.552 M 1167.221 468.750 C 1123.267 547.048, 1123 547.529, 1123 548.434 C 1123 548.745, 1133.013 548.999, 1145.250 548.997 L 1167.500 548.994 1176.621 531.747 L 1185.742 514.500 1210.727 514.233 L 1235.712 513.966 1236.434 530.706 C 1236.832 539.912, 1237.373 547.795, 1237.638 548.223 C 1238.255 549.221, 1286.994 549.248, 1287.019 548.250 C 1287.081 545.853, 1275.772 396.280, 1275.452 395.250 C 1275.151 394.283, 1267.601 394, 1242.123 394 L 1209.183 394 1167.221 468.750 M 1482 395.612 C 1482 395.949, 1488.536 416.889, 1496.525 442.147 L 1511.050 488.070 1504.025 517.677 C 1500.161 533.961, 1497 547.670, 1497 548.142 C 1497 548.614, 1507.977 549, 1521.393 549 C 1539.990 549, 1545.898 548.703, 1546.256 547.750 C 1546.514 547.063, 1549.800 533.450, 1553.558 517.500 L 1560.391 488.500 1589.891 451 C 1606.116 430.375, 1622.698 409.337, 1626.740 404.250 L 1634.089 395 1610.294 395.049 L 1586.500 395.098 1567 423.466 L 1547.500 451.835 1545.348 443.167 C 1544.165 438.400, 1541.084 425.613, 1538.502 414.750 L 1533.808 395 1507.904 395 C 1493.657 395, 1482 395.275, 1482 395.612 M 1346.706 408.750 C 1346.480 409.163, 1345.027 415.012, 1343.478 421.750 L 1340.661 434 1332.493 434 L 1324.325 434 1321.824 444.750 C 1320.449 450.663, 1319.503 455.837, 1319.721 456.250 C 1319.939 456.663, 1323.519 457, 1327.676 457 C 1334.378 457, 1335.182 457.198, 1334.784 458.750 C 1334.536 459.712, 1330.602 476.327, 1326.041 495.672 C 1317.240 533.001, 1317 535.187, 1321.125 540.432 C 1323.927 543.994, 1331.242 547.553, 1338.827 549.046 C 1345.470 550.353, 1374.313 549.817, 1381 548.263 C 1384.486 547.453, 1384.511 547.407, 1387.166 536.975 C 1388.632 531.214, 1389.871 526.050, 1389.918 525.500 C 1389.972 524.875, 1386.271 524.618, 1380.058 524.815 C 1369.850 525.139, 1366 524.213, 1366 521.435 C 1366 520.096, 1377.612 470.054, 1380.082 460.750 L 1381.077 457 1393.560 457 C 1405.557 457, 1406.080 456.913, 1406.992 454.750 C 1407.784 452.871, 1412 435.758, 1412 434.421 C 1412 434.189, 1406.216 434, 1399.148 434 L 1386.295 434 1389.125 422.250 C 1390.681 415.788, 1391.965 409.938, 1391.977 409.250 C 1391.995 408.286, 1386.857 408, 1369.559 408 C 1357.216 408, 1346.933 408.337, 1346.706 408.750 M 1225.334 439.764 C 1222.532 445.119, 1215.652 458.387, 1210.044 469.250 L 1199.848 489 1216.518 489 L 1233.188 489 1232.481 460.250 C 1232.093 444.438, 1231.472 431.169, 1231.102 430.764 C 1230.731 430.360, 1228.136 434.410, 1225.334 439.764 M 1668.919 431.951 C 1659.559 433.657, 1648.708 437.122, 1641.747 440.628 C 1632.849 445.108, 1623.122 454.552, 1620.762 461 C 1617.493 469.932, 1606.698 517.502, 1606.693 523 C 1606.678 540.037, 1622.926 549.556, 1654 550.714 C 1676.806 551.565, 1694.496 548.244, 1708.540 540.477 C 1715.433 536.665, 1724.382 527.724, 1726.588 522.444 C 1729.197 516.199, 1741.160 464.710, 1741.213 459.500 C 1741.336 447.225, 1732.398 438.526, 1714.500 433.501 C 1707.672 431.584, 1676.709 430.531, 1668.919 431.951 M 1989.176 433.025 C 1983.004 434.304, 1974.345 438.476, 1969.320 442.594 C 1966.944 444.541, 1965.005 445.991, 1965.012 445.817 C 1965.018 445.643, 1965.688 443.025, 1966.500 440 C 1967.312 436.975, 1967.982 434.163, 1967.988 433.750 C 1967.995 433.337, 1957.875 433, 1945.500 433 C 1933.125 433, 1923 433.187, 1923 433.416 C 1923 433.645, 1916.925 459.525, 1909.500 490.926 C 1902.075 522.328, 1896 548.240, 1896 548.510 C 1896 549.319, 1940.844 549.062, 1941.343 548.250 C 1941.597 547.837, 1945.902 530.175, 1950.912 509 C 1956.199 486.646, 1960.768 469.452, 1961.804 468 C 1962.786 466.625, 1966.269 464.150, 1969.545 462.500 C 1975.403 459.549, 1975.755 459.500, 1991.120 459.500 L 2006.740 459.500 2009.843 446.557 C 2011.550 439.438, 2012.697 433.363, 2012.392 433.057 C 2011.444 432.106, 1993.732 432.082, 1989.176 433.025 M 1762.210 480.750 C 1756.028 507.012, 1750.976 530.007, 1750.985 531.849 C 1751.040 543.877, 1763.358 551.127, 1783.719 551.115 C 1798.457 551.106, 1810.650 547.753, 1820.764 540.927 L 1825.241 537.905 1824.572 540.569 C 1824.204 542.035, 1823.642 544.540, 1823.323 546.136 L 1822.742 549.039 1845.073 548.769 L 1867.405 548.500 1880.671 492.500 C 1887.968 461.700, 1893.952 435.712, 1893.969 434.750 C 1893.998 433.136, 1892.300 433, 1872.059 433 C 1858.960 433, 1849.876 433.391, 1849.518 433.970 C 1849.189 434.504, 1844.629 453.066, 1839.386 475.220 C 1833.783 498.897, 1829.038 516.820, 1827.875 518.702 C 1826.677 520.640, 1823.744 522.956, 1820.443 524.572 C 1815.892 526.798, 1814.005 527.168, 1809.032 526.809 C 1801.955 526.297, 1798.994 524.165, 1799.013 519.595 C 1799.020 517.893, 1803.295 498.510, 1808.513 476.523 C 1813.731 454.535, 1818 435.748, 1818 434.773 C 1818 433.129, 1816.381 433, 1795.725 433 L 1773.451 433 1762.210 480.750 M 1674.684 455.449 C 1670.034 457.107, 1667.515 459.284, 1666.150 462.822 C 1664.212 467.845, 1653 517.071, 1653 520.556 C 1653 523.402, 1653.587 524.388, 1656.250 526.011 C 1662.940 530.090, 1677.263 527.657, 1680.884 521.827 C 1681.645 520.601, 1685.297 506.758, 1689 491.064 C 1696.580 458.934, 1696.598 458.257, 1689.910 455.581 C 1685.129 453.668, 1679.807 453.622, 1674.684 455.449 M 748 520.060 C 680.242 524.301, 616.362 538.803, 572.417 559.919 C 542.895 574.105, 528.039 587.957, 516.029 612.500 C 506.437 632.104, 501.322 650.848, 500.280 670.218 C 499.528 684.207, 500.852 687.878, 509.903 696.898 C 515.258 702.235, 518.250 704.255, 525.514 707.442 C 569.806 726.870, 602.429 736.101, 653 743.514 C 694.144 749.545, 723.058 759.379, 746.232 775.224 C 754.388 780.800, 764.624 790.560, 767.029 795.054 C 767.962 796.798, 767.210 797.581, 760.290 802.068 C 750.025 808.722, 730.941 818.080, 718.555 822.531 C 674.432 838.389, 622.822 843.731, 523.733 842.697 C 486.658 842.310, 471.597 841.805, 466.236 840.772 C 452.724 838.167, 453.781 835.132, 470.070 829.763 C 482.066 825.808, 486.428 823.020, 484.151 820.761 C 483.253 819.871, 479.444 819.547, 471.190 819.661 C 457.626 819.848, 444.239 822.831, 434.180 827.909 C 419.944 835.095, 401.448 858.483, 397.032 874.879 C 392.697 890.980, 407.753 904.024, 439.261 911.465 C 464.927 917.527, 493.868 920.115, 536 920.114 C 587.438 920.113, 631.956 915.701, 679.799 905.863 C 701.634 901.373, 722.989 895.568, 734.622 890.961 C 773.383 875.611, 801.583 850.332, 811.770 821.806 C 813.810 816.096, 814.470 812.085, 814.792 803.443 C 815.156 793.651, 814.923 791.581, 812.753 785.341 C 803.244 757.997, 768.955 735.217, 703.465 712.737 C 678.377 704.125, 657.917 698.478, 621 689.973 C 585.600 681.818, 570.355 677.732, 564.854 674.925 C 559.082 671.981, 556.808 667.785, 557.248 660.893 C 557.959 649.782, 568.104 640.044, 590.500 628.976 C 619.206 614.789, 657.538 604.813, 707.500 598.527 C 738.149 594.671, 755.586 593.599, 788.500 593.548 C 813.185 593.510, 819.998 593.783, 821.944 594.889 L 824.389 596.278 821.444 598.627 C 819.825 599.918, 812.082 603.881, 804.238 607.432 C 783.083 617.011, 764.674 629.994, 760.745 638.107 C 756.788 646.278, 762.543 645.958, 779.376 637.071 C 799.149 626.631, 815.006 620.065, 843.068 610.699 C 857.056 606.030, 870.642 601.277, 873.259 600.137 C 882.863 595.953, 892.522 584.422, 896.127 572.840 C 898.878 564.002, 900.433 548.320, 899.063 543.233 C 896.162 532.462, 878.996 525.554, 845 521.478 C 828.833 519.540, 770.041 518.680, 748 520.060 M 1685.908 588.890 C 1670.940 594.746, 1652.968 616.034, 1651.332 629.844 C 1650.233 639.124, 1654.747 646.077, 1665 650.900 C 1680.253 658.075, 1699.575 650.306, 1713.942 631.224 C 1716.726 627.526, 1719.903 622.121, 1721.002 619.212 C 1723.322 613.072, 1723.601 604.375, 1721.630 599.657 C 1719.859 595.419, 1713.078 589.640, 1708.142 588.161 C 1702.378 586.434, 1691.253 586.799, 1685.908 588.890 M 1143.069 659.189 C 1130.126 664.159, 1114.994 676.082, 1100.934 692.388 C 1086.015 709.690, 1077.714 725.641, 1077.709 737.015 C 1077.704 748.475, 1082.055 753.501, 1096.857 759.135 L 1099.215 760.032 1095.414 764.766 C 1085.231 777.451, 1074.307 788.304, 1065.219 794.767 C 1011.499 832.969, 981.640 846.096, 951.354 844.828 C 939.617 844.337, 932.628 841.628, 926 835 C 919.513 828.513, 916.768 821.498, 916.214 809.989 L 915.750 800.363 927.625 796.070 C 1021.416 762.163, 1070.089 725.479, 1069.978 688.782 C 1069.941 676.495, 1065.151 669.612, 1053.332 664.861 C 1048.026 662.727, 1046.057 662.523, 1031.500 662.590 C 1016.858 662.657, 1014.510 662.929, 1003.832 665.793 C 967.473 675.546, 930.794 697.217, 896.804 729.029 C 872.987 751.322, 861.087 770.964, 856.430 795.674 C 855.145 802.487, 854.887 807.921, 855.297 819.500 C 855.922 837.155, 857.415 843.799, 863.728 857 C 867.514 864.919, 869.621 867.847, 876.385 874.589 C 889.625 887.786, 903.400 893, 925.029 893 C 962.151 893, 995.385 877.550, 1039.559 839.755 C 1045.641 834.551, 1054.866 826.231, 1060.059 821.267 C 1065.252 816.303, 1069.950 812.193, 1070.500 812.134 C 1072.607 811.908, 1092.376 795.376, 1102.260 785.576 C 1113.546 774.385, 1123.480 762.458, 1130.722 751.405 L 1135.370 744.311 1166.435 739.574 C 1183.521 736.969, 1199.236 734.461, 1201.359 734.001 L 1205.217 733.164 1202.806 735.832 C 1201.479 737.299, 1196.914 742.267, 1192.660 746.872 C 1188.407 751.476, 1180.360 760.926, 1174.779 767.872 C 1143.176 807.198, 1134.114 834.848, 1144.090 861.512 C 1146.852 868.892, 1155.255 877.968, 1162.240 881.114 C 1170.274 884.733, 1182.698 884.406, 1193.632 880.288 C 1212.004 873.370, 1235.411 857.105, 1271.238 826.366 C 1282.175 816.982, 1283.528 816.097, 1283.762 818.173 C 1287.192 848.685, 1303.634 875.693, 1325 885.913 C 1332.061 889.290, 1333.086 889.500, 1342.500 889.500 C 1351.535 889.500, 1353.205 889.193, 1359.808 886.323 C 1373.839 880.223, 1398.658 862.015, 1428.265 836.101 L 1441.031 824.928 1450.765 828.708 C 1459.934 832.268, 1461.139 832.486, 1471.500 832.472 C 1477.550 832.463, 1484.975 831.847, 1488 831.103 C 1495.128 829.349, 1505.904 824.400, 1516.403 818.058 C 1521.009 815.276, 1525.053 813, 1525.389 813 C 1525.725 813, 1526 814.535, 1526 816.412 C 1526 826.286, 1530.914 843.710, 1537.595 857.528 C 1547.612 878.244, 1562.264 888, 1583.359 888 C 1594.828 888, 1603.824 885.633, 1618 878.885 C 1637.684 869.515, 1658.247 854.237, 1682.007 831.330 C 1688.444 825.123, 1694.001 820.335, 1694.356 820.689 C 1694.710 821.043, 1695 822.333, 1695 823.555 C 1695 828.473, 1700.311 844.128, 1705.499 854.500 C 1716.355 876.205, 1732.777 890.719, 1752 895.599 C 1761.364 897.976, 1778.477 897.078, 1790.500 893.578 C 1814.825 886.498, 1843.571 868.369, 1891.679 829.771 C 1905.014 819.072, 1910.010 815.582, 1910.429 816.675 C 1910.743 817.494, 1911.006 820.714, 1911.013 823.832 C 1911.036 833.657, 1914.472 847.323, 1919.538 857.737 C 1927.846 874.815, 1942.225 886.564, 1961 891.616 C 1968.996 893.767, 1989.976 894.016, 2001 892.091 C 2012.230 890.131, 2026.185 885.449, 2038.500 879.511 C 2062.358 868.007, 2094.842 843.116, 2121.806 815.677 L 2132.113 805.189 2140.306 802.977 C 2149.279 800.554, 2165.453 797.729, 2167.642 798.202 C 2168.540 798.396, 2163.983 806.050, 2154.598 820.109 L 2140.174 841.719 2135.464 842.905 C 2129.748 844.344, 2121.347 848.448, 2118.155 851.360 C 2115.069 854.176, 2113 858.266, 2113 861.550 C 2113 864.184, 2117.937 870.164, 2120.922 871.147 C 2122.003 871.502, 2121.098 873.921, 2117.153 881.218 C 2109.487 895.395, 2106 904.447, 2106 910.169 C 2106 915.509, 2107.169 916.676, 2111.441 915.604 C 2113.086 915.191, 2115.868 912.017, 2120.003 905.834 C 2125.185 898.088, 2126.087 896.091, 2125.856 892.888 C 2125.652 890.066, 2126.571 887.230, 2129.462 881.761 L 2133.341 874.421 2145.421 874.815 C 2184.480 876.090, 2216.110 858.167, 2226.577 828.829 C 2228.802 822.595, 2229.972 810.475, 2228.954 804.219 C 2225.280 781.645, 2208.242 771.975, 2174.500 773.315 C 2158.866 773.936, 2146.362 776.255, 2129.831 781.599 L 2119.108 785.065 2113.870 794.549 L 2108.631 804.032 2094.741 813.098 C 2063.244 833.658, 2038.236 843.855, 2015.016 845.605 C 1996.176 847.026, 1982.135 840.151, 1975.287 826.154 C 1972.962 821.402, 1972.477 818.966, 1972.175 810.513 L 1971.818 800.500 1980.159 797.637 C 1997.914 791.544, 2027.243 779.449, 2043.500 771.517 C 2096.781 745.520, 2123.861 719.308, 2125.742 691.914 C 2126.386 682.536, 2125.036 678.079, 2119.845 672.447 C 2104.666 655.980, 2063.437 659.715, 2020.017 681.491 C 2005.225 688.910, 1995.307 695.161, 1979.500 707.029 C 1944.705 733.153, 1924.681 756.546, 1916.418 780.721 C 1913.925 788.015, 1912.339 791.077, 1910.177 792.771 C 1903.707 797.840, 1864.806 820.421, 1849.674 827.892 C 1821.566 841.770, 1803.775 847.138, 1785.500 847.258 C 1773.775 847.335, 1766.902 845.934, 1758.100 841.675 C 1749.959 837.735, 1743.189 831.140, 1739.464 823.520 C 1736.937 818.351, 1736.537 816.382, 1736.520 809.020 C 1736.505 802.586, 1736.972 799.549, 1738.428 796.614 C 1741.255 790.918, 1749.644 782.298, 1758.719 775.764 C 1768.110 769.002, 1813.939 741.266, 1818.139 739.802 C 1822.852 738.159, 1824 739.955, 1824 748.967 C 1824 757.755, 1825.193 759.670, 1831.283 760.659 C 1842.595 762.494, 1867.299 741.154, 1884.463 714.721 C 1895.163 698.244, 1897.691 687.190, 1892.984 677.467 C 1885.656 662.330, 1866.614 657.848, 1842.828 665.661 C 1832.462 669.066, 1805.882 682.370, 1792.199 691.002 C 1771.212 704.241, 1741.854 727.445, 1722.705 745.928 C 1705.764 762.281, 1699.438 771.709, 1695.480 786.500 L 1693.340 794.500 1679.836 803.500 C 1663.592 814.326, 1646.901 823.816, 1637.853 827.370 C 1615.063 836.322, 1593.088 834.413, 1582.135 822.530 C 1577.259 817.241, 1575.602 812.323, 1576.258 805.091 C 1577.374 792.787, 1583.077 785.811, 1611 762.590 C 1630.578 746.310, 1635.670 741.434, 1643.467 731.500 C 1672.123 694.988, 1673.281 676.991, 1647.082 675.298 C 1632.856 674.378, 1616.864 679.803, 1600.277 691.175 C 1583.407 702.741, 1556.529 731.843, 1540.561 755.833 C 1533.865 765.892, 1527.032 781.981, 1527.009 787.740 C 1526.997 790.673, 1520.494 795.439, 1507.408 802.104 C 1498.909 806.433, 1496.226 807.320, 1490.408 807.721 C 1483.933 808.168, 1483.240 808.008, 1479.353 805.167 C 1477.072 803.501, 1473.986 800.537, 1472.495 798.582 L 1469.784 795.028 1472.642 791.614 C 1493.929 766.192, 1503.948 751.921, 1511.860 735.758 C 1524.224 710.499, 1526.285 691.089, 1517.351 684.061 C 1513.698 681.188, 1507.005 680.470, 1501.467 682.356 C 1485.544 687.782, 1450.643 724.078, 1433.575 752.963 C 1426.792 764.442, 1423.575 772.434, 1421.438 783.117 C 1420.515 787.728, 1419.252 792.131, 1418.631 792.903 C 1416.334 795.756, 1384.136 820.969, 1373.336 828.372 C 1358.836 838.311, 1350.216 842.369, 1343.907 842.225 C 1334.701 842.015, 1330.124 837.598, 1329.296 828.123 C 1328.832 822.806, 1329.955 817.119, 1336.074 793.815 C 1336.843 790.887, 1338.444 789.110, 1343.866 785.167 C 1379.431 759.299, 1414.383 717.452, 1416.689 697.978 C 1417.208 693.595, 1416.978 692.606, 1414.937 690.433 C 1410.892 686.127, 1400.285 683.500, 1386.947 683.500 C 1375.533 683.500, 1375.298 683.547, 1367.447 687.411 C 1360.392 690.883, 1357.580 693.241, 1342.395 708.411 C 1313.311 737.469, 1296.576 761.034, 1288.112 784.847 L 1285.500 792.198 1271.642 801.021 C 1256.652 810.565, 1239.066 819.763, 1229.500 823.062 C 1221.809 825.715, 1210.842 826.596, 1205.060 825.026 C 1202.479 824.325, 1199.187 822.387, 1197.195 820.395 C 1193.876 817.076, 1193.782 816.766, 1194.182 810.486 C 1194.524 805.106, 1195.483 802.257, 1199.814 793.751 C 1209.079 775.557, 1216.256 766.580, 1241.590 741.500 C 1264.197 719.119, 1266.405 716.574, 1267.965 711.111 C 1269.799 704.683, 1265.479 686.939, 1260.487 680.394 C 1255.734 674.162, 1253.556 673.633, 1235.519 674.321 C 1222.461 674.819, 1178.298 679.406, 1155.526 682.629 L 1150.552 683.333 1152.133 680.917 C 1160.859 667.584, 1163.014 660.946, 1159.461 658.348 C 1156.796 656.399, 1149.339 656.782, 1143.069 659.189 M 1002.500 697.909 C 994.296 700.877, 979.999 708.419, 970.453 714.814 C 952.480 726.854, 937.324 741.920, 928.824 756.194 C 924.688 763.140, 919.651 776.146, 920.190 778.484 C 920.568 780.122, 939.612 772.883, 953.850 765.691 C 978.815 753.080, 1001.469 734.623, 1012.750 717.706 C 1019.025 708.294, 1020.860 702.649, 1018.827 699 C 1017.663 696.910, 1016.619 696.467, 1012.467 696.300 C 1009.684 696.188, 1005.302 696.896, 1002.500 697.909 M 2060 697.910 C 2028.513 708.230, 1991.763 738.938, 1980.546 764.301 C 1977.163 771.951, 1974.899 780, 1976.130 780 C 1976.693 780, 1982.195 778.028, 1988.358 775.619 C 2023.191 761.999, 2053.415 740.528, 2067.923 719.095 C 2073.567 710.758, 2075 707.520, 2075 703.106 C 2075 696.140, 2070.333 694.523, 2060 697.910 M 2175.994 799.250 C 2175.977 803.169, 2172.962 809.280, 2164.034 823.495 C 2158.545 832.235, 2154.154 839.472, 2154.277 839.577 C 2154.399 839.681, 2157.200 839.393, 2160.500 838.935 C 2164.139 838.430, 2166.874 838.476, 2167.450 839.052 C 2168.997 840.596, 2166.988 841.640, 2160 842.922 C 2150.389 844.684, 2150.136 844.813, 2147.983 849.033 C 2146.892 851.171, 2146 853.221, 2146 853.588 C 2146 853.956, 2152.188 854.020, 2159.750 853.731 C 2175.152 853.142, 2181.854 851.650, 2192.858 846.359 C 2210.121 838.058, 2222.640 818.042, 2217.074 807.640 C 2214.015 801.922, 2200.648 798.063, 2183.750 798.020 C 2178.209 798.006, 2175.998 798.356, 2175.994 799.250 M 2386 820.685 C 2383.116 821.780, 2380.048 825.324, 2378.893 828.897 C 2377.652 832.736, 2373.762 837.421, 2355.974 856.500 C 2344.184 869.146, 2337.070 875, 2333.491 875 C 2330.094 875, 2329.927 874.077, 2332.433 869.128 C 2335.732 862.614, 2338 854.430, 2338 849.041 C 2338 844.271, 2335.888 840, 2333.530 840 C 2332.430 840, 2332.393 839.417, 2333.337 836.913 C 2334.383 834.137, 2334.262 833.632, 2332.139 831.913 C 2330.435 830.532, 2328.203 830, 2324.111 830 C 2311.287 830, 2293.983 842.920, 2285.744 858.646 C 2283.685 862.577, 2282 866.674, 2282 867.751 C 2282 869.010, 2279.870 871.204, 2276.045 873.887 C 2265.127 881.546, 2258.731 882.759, 2257.392 877.426 C 2256.432 873.600, 2262.761 861.876, 2270.577 853 C 2277.079 845.617, 2277.175 845.424, 2276.730 840.667 C 2276.438 837.543, 2275.534 835.090, 2274.177 833.732 C 2272.137 831.693, 2271.759 831.668, 2261.288 832.873 C 2255.355 833.555, 2249.490 834.361, 2248.256 834.664 C 2246.059 835.202, 2246.043 835.142, 2247.467 831.734 C 2248.266 829.820, 2248.639 827.972, 2248.294 827.627 C 2243.495 822.829, 2226 842.205, 2226 852.317 C 2226 854.930, 2226.675 856.386, 2228.584 857.887 C 2231.391 860.095, 2231.335 860.351, 2226.767 866.226 C 2224.619 868.989, 2223.958 870.799, 2224.212 873.226 L 2224.555 876.500 2230.118 870.671 C 2233.178 867.466, 2236.991 862.644, 2238.591 859.957 C 2241.685 854.759, 2241.632 854.783, 2255.366 852.404 L 2259.231 851.734 2253.609 859.758 C 2245.935 870.709, 2242.834 877.999, 2242.867 885.004 C 2242.897 891.377, 2243.957 894.789, 2246.635 897.132 C 2252.255 902.049, 2258.446 899.525, 2271.324 887.067 C 2276.479 882.080, 2280.990 878, 2281.348 878 C 2281.707 878, 2282.004 878.788, 2282.010 879.750 C 2282.022 882.026, 2286.654 891.959, 2288.818 894.353 C 2291.332 897.132, 2297.514 900, 2300.992 900 C 2306.014 900, 2310.743 897.413, 2317.394 891.026 C 2322.768 885.866, 2324.203 885, 2327.385 885 C 2331.481 885, 2335.916 883.043, 2340.500 879.212 C 2343.289 876.881, 2343.522 876.838, 2343.815 878.602 C 2344.676 883.783, 2346.635 887.734, 2350.337 891.750 C 2363.032 905.522, 2376.564 902.657, 2400.749 881.076 C 2405.989 876.401, 2406.999 874.975, 2406.999 872.250 C 2407 870.462, 2406.765 869, 2406.479 869 C 2406.192 869, 2403.121 871.229, 2399.655 873.953 C 2391.763 880.155, 2384.522 883.830, 2378.592 884.642 C 2372.883 885.425, 2372.689 884.180, 2377.952 880.533 C 2384.375 876.082, 2391.919 867.420, 2394.742 861.253 C 2398.046 854.035, 2398.137 846.792, 2395.070 835.066 C 2393.856 830.427, 2393.064 825.864, 2393.309 824.926 C 2393.554 823.989, 2393.468 822.757, 2393.117 822.190 C 2392.300 820.867, 2387.947 819.947, 2386 820.685 M 2365.204 856.295 L 2352.949 868.580 2356.472 869.854 C 2358.421 870.558, 2361.201 872.776, 2362.693 874.814 C 2364.176 876.841, 2365.700 878.876, 2366.080 879.335 C 2367.099 880.568, 2372.381 877.524, 2375.355 873.990 C 2379.079 869.565, 2380.319 863.900, 2379.494 855.090 C 2378.320 842.561, 2378.959 842.507, 2365.204 856.295 M 2315.533 849.587 C 2300.315 859.583, 2297 863.721, 2294.865 875.381 C 2293.637 882.091, 2293.663 882.309, 2295.914 884.131 C 2299.359 886.921, 2304.590 886.493, 2310.451 882.940 L 2315.500 879.880 2315.500 870.190 C 2315.500 860.985, 2315.687 860.128, 2319.242 853.076 C 2321.301 848.992, 2322.854 845.521, 2322.695 845.362 C 2322.536 845.202, 2319.313 847.104, 2315.533 849.587 M 1308.510 1048.110 C 1301.827 1049.472, 1292.452 1054.055, 1287.278 1058.489 C 1284.563 1060.816, 1281.707 1064.837, 1279.278 1069.753 L 1275.500 1077.397 1275.500 1128.501 L 1275.500 1179.605 1279.278 1187.248 C 1287.305 1203.490, 1302.332 1210.785, 1325.500 1209.689 C 1342.638 1208.878, 1353.912 1203.802, 1360.793 1193.800 C 1366.602 1185.356, 1367 1182.676, 1367 1151.965 L 1367 1124 1343 1124 L 1319 1124 1319 1136 L 1319 1148 1327.500 1148 L 1336 1148 1336 1160.599 C 1336 1170.001, 1335.600 1174.041, 1334.423 1176.522 C 1330.236 1185.345, 1314.251 1185.007, 1309.752 1176 C 1308.165 1172.825, 1308.003 1168.358, 1308.002 1127.898 L 1308 1083.296 1310.280 1079.912 C 1311.534 1078.052, 1313.672 1075.967, 1315.030 1075.279 C 1318.477 1073.535, 1326.554 1073.695, 1330.540 1075.586 C 1335.938 1078.148, 1337.352 1081.285, 1337.823 1091.750 L 1338.239 1101 1352.619 1101 L 1367 1101 1367 1089.038 C 1367 1074.798, 1365.212 1068.794, 1358.800 1061.510 C 1350.339 1051.898, 1340.811 1047.994, 1324.500 1047.456 C 1318.450 1047.257, 1311.255 1047.551, 1308.510 1048.110 M 1824 1048.053 C 1810.188 1050.443, 1796.626 1060.853, 1791.821 1072.753 L 1789.500 1078.500 1789.500 1129 C 1789.500 1179.307, 1789.509 1179.522, 1791.789 1185.161 C 1794.800 1192.610, 1798.904 1197.667, 1805.644 1202.234 C 1813.462 1207.532, 1819.623 1209.215, 1833.143 1209.747 C 1849.266 1210.380, 1859.071 1207.448, 1868.100 1199.290 C 1876.655 1191.562, 1879.970 1182.209, 1879.988 1165.750 L 1880 1155 1865.619 1155 L 1851.239 1155 1850.824 1164.488 C 1850.357 1175.164, 1848.933 1178.187, 1842.929 1181.248 C 1836.312 1184.622, 1828.528 1182.475, 1824.270 1176.102 L 1822 1172.704 1822 1128.753 C 1822 1078.448, 1821.879 1079.268, 1829.791 1075.768 C 1838.187 1072.054, 1847.759 1075.872, 1849.965 1083.814 C 1850.528 1085.841, 1850.991 1090.987, 1850.994 1095.250 L 1851 1103 1865.596 1103 L 1880.192 1103 1879.837 1089.250 C 1879.520 1076.972, 1879.204 1074.906, 1876.890 1069.954 C 1870.128 1055.488, 1857.891 1048.228, 1839 1047.478 C 1833.775 1047.271, 1827.025 1047.530, 1824 1048.053 M 2191.500 1048.073 C 2175.816 1050.705, 2164.173 1059, 2158.160 1071.825 L 2155.500 1077.500 2155.205 1126.302 C 2154.876 1180.895, 2155.074 1182.973, 2161.547 1192.752 C 2169.148 1204.236, 2182.517 1210.200, 2200.843 1210.283 C 2216.384 1210.354, 2228.392 1205.807, 2236.509 1196.779 C 2243.108 1189.439, 2245.159 1183.005, 2245.762 1167.750 L 2246.265 1155 2231.133 1155 L 2216 1155 2215.985 1164.250 C 2215.977 1169.598, 2215.449 1174.514, 2214.735 1175.904 C 2210.234 1184.663, 2195.151 1185.216, 2190.026 1176.810 C 2188.081 1173.620, 2188.007 1171.871, 2188.004 1128.700 C 2188.001 1090.607, 2188.227 1083.462, 2189.517 1080.967 C 2193.949 1072.397, 2210.149 1072.587, 2214.635 1081.261 C 2215.688 1083.297, 2216.483 1087.908, 2216.788 1093.745 L 2217.273 1103 2231.636 1103 L 2246 1103 2246 1092.210 C 2246 1079.553, 2244.208 1071.557, 2239.848 1064.763 C 2231.214 1051.308, 2211.917 1044.647, 2191.500 1048.073 M 557 1127.934 L 557 1207 573 1207 L 589 1207 589 1178.633 L 589 1150.265 601.750 1149.732 C 616.348 1149.122, 622.984 1147.419, 629.177 1142.696 C 641.744 1133.110, 646.738 1118.131, 645.746 1093 C 645.349 1082.947, 644.760 1079.172, 642.737 1073.714 C 638.323 1061.806, 632.851 1055.793, 622.632 1051.625 C 617.889 1049.690, 615.209 1049.507, 587.250 1049.200 L 557 1048.868 557 1127.934 M 663 1128 L 663 1207 702.500 1207 L 742 1207 742 1194.018 L 742 1181.037 718.750 1180.768 L 695.500 1180.500 695.243 1114.750 L 694.986 1049 678.993 1049 L 663 1049 663 1128 M 753.216 1114.750 L 753.500 1180.500 755.896 1186.449 C 761.918 1201.399, 777.074 1209.965, 797.500 1209.965 C 821.943 1209.965, 839.565 1197.515, 843.876 1177.201 C 844.638 1173.606, 845 1152.141, 845 1110.451 L 845 1049 829.500 1049 L 814 1049 814 1109.935 C 814 1150.669, 813.646 1171.803, 812.933 1173.685 C 808.053 1186.567, 789.791 1185.080, 786.099 1171.500 C 785.373 1168.830, 785.009 1147.796, 785.006 1108.250 L 785 1049 768.966 1049 L 752.932 1049 753.216 1114.750 M 864 1128.480 L 864 1208 878 1208 L 892 1208 892.102 1152.250 L 892.204 1096.500 894.513 1104 C 895.783 1108.125, 900.084 1123.313, 904.072 1137.750 L 911.322 1164 922.475 1164 L 933.627 1164 942.563 1130.875 L 951.500 1097.751 951.758 1152.875 L 952.017 1208 966.508 1208 L 981 1208 981 1128.500 L 981 1049 961.250 1049 L 941.500 1049.001 932.633 1079.750 C 927.757 1096.663, 923.482 1110.810, 923.133 1111.189 C 922.785 1111.568, 918.617 1097.843, 913.872 1080.689 L 905.243 1049.500 884.622 1049.230 L 864 1048.959 864 1128.480 M 1000 1128.586 L 1000 1208.171 1031.250 1207.742 C 1064.948 1207.279, 1066.762 1207.027, 1074.644 1201.723 C 1080.997 1197.448, 1085.292 1191.587, 1088.144 1183.302 C 1091.358 1173.963, 1091.546 1154.332, 1088.500 1146.085 C 1085.937 1139.145, 1079.289 1131.728, 1073.498 1129.347 C 1071.028 1128.331, 1069.032 1127.275, 1069.062 1127 C 1069.093 1126.725, 1071.453 1125.358, 1074.309 1123.961 C 1080.881 1120.747, 1086.273 1113.218, 1088.606 1104 C 1090.612 1096.071, 1090.047 1077.960, 1087.576 1071 C 1083.682 1060.030, 1074.245 1052.246, 1062.114 1049.998 C 1059.151 1049.449, 1043.963 1049, 1028.364 1049 L 1000 1049 1000 1128.586 M 1109 1128.500 L 1109 1208 1125 1208 L 1141 1208 1141 1128.500 L 1141 1049 1125 1049 L 1109 1049 1109 1128.500 M 1161 1128.500 L 1161 1208 1174.990 1208 L 1188.981 1208 1189.240 1160.250 L 1189.500 1112.500 1208.646 1160 L 1227.792 1207.500 1242.396 1207.777 L 1257 1208.053 1257 1128.527 L 1257 1049 1243 1049 L 1229 1049 1228.866 1055.750 C 1228.792 1059.463, 1228.454 1078.403, 1228.116 1097.839 L 1227.500 1133.179 1210.544 1091.089 L 1193.588 1049 1177.294 1049 L 1161 1049 1161 1128.500 M 1508 1128.500 L 1508 1208 1547.500 1208 L 1587 1208 1587 1194.518 L 1587 1181.037 1563.750 1180.768 L 1540.500 1180.500 1540.229 1160.250 L 1539.959 1140 1558.479 1140 L 1577 1140 1577 1126.500 L 1577 1113 1558.500 1113 L 1540 1113 1540 1094.500 L 1540 1076 1563.500 1076 L 1587 1076 1587 1062.500 L 1587 1049 1547.500 1049 L 1508 1049 1508 1128.500 M 1604 1128.500 L 1604 1208 1643 1208 L 1682 1208 1682 1194.500 L 1682 1181 1659 1181 L 1636 1181 1636 1115 L 1636 1049 1620 1049 L 1604 1049 1604 1128.500 M 1698 1129 L 1698 1208 1737 1208 L 1776 1208 1776 1194.500 L 1776 1181 1753 1181 L 1730 1181 1730 1160.500 L 1730 1140 1748 1140 L 1766 1140 1766 1126.500 L 1766 1113 1748 1113 L 1730 1113 1730 1094.500 L 1730 1076 1753 1076 L 1776 1076 1776 1063 L 1776 1050 1737 1050 L 1698 1050 1698 1129 M 1888 1063 L 1888 1076 1903.500 1076 L 1919 1076 1919 1142 L 1919 1208 1934.993 1208 L 1950.986 1208 1951.243 1142.250 L 1951.500 1076.500 1966.750 1076.224 L 1982 1075.948 1982 1062.974 L 1982 1050 1935 1050 L 1888 1050 1888 1063 M 1996 1128.935 L 1996 1208 2012 1208 L 2028 1208 2028 1176.500 L 2028 1145 2033.358 1145 L 2038.715 1145 2047.032 1176.500 L 2055.348 1208 2072.241 1208 L 2089.135 1208 2088.398 1205.750 C 2085.987 1198.382, 2068.093 1138.596, 2068.277 1138.521 C 2071.042 1137.392, 2078.255 1129.948, 2080.396 1126.014 C 2088.311 1111.472, 2089.097 1086.454, 2082.111 1071.453 C 2078.081 1062.798, 2073.918 1058.563, 2065.207 1054.256 L 2057.611 1050.500 2026.806 1050.185 L 1996 1049.870 1996 1128.935 M 2105 1129 L 2105 1208 2121 1208 L 2137 1208 2137 1129 L 2137 1050 2121 1050 L 2105 1050 2105 1129 M 1032.485 1075.179 C 1032.193 1075.939, 1032.077 1085.098, 1032.227 1095.531 L 1032.500 1114.500 1040.680 1114.500 C 1047.396 1114.500, 1049.364 1114.128, 1051.680 1112.419 C 1055.344 1109.714, 1057.900 1102.261, 1057.956 1094.116 C 1058.013 1085.905, 1056.445 1080.800, 1052.791 1077.300 C 1050.148 1074.766, 1049.068 1074.466, 1041.443 1074.148 C 1034.945 1073.876, 1032.894 1074.112, 1032.485 1075.179 M 589 1099.397 L 589 1124 596.250 1123.996 C 608.396 1123.990, 612.033 1120.185, 614.141 1105.278 C 615.747 1093.918, 613.982 1084.042, 609.463 1079.111 C 606.224 1075.577, 605.972 1075.493, 597.577 1075.147 L 589 1074.795 589 1099.397 M 2028 1099 L 2028 1122 2035.250 1121.998 C 2044.888 1121.996, 2048.724 1120.065, 2051.927 1113.602 C 2053.942 1109.537, 2054.364 1107.158, 2054.408 1099.602 C 2054.471 1088.905, 2052.446 1082.394, 2047.851 1078.528 C 2045.158 1076.262, 2043.974 1076, 2036.423 1076 L 2028 1076 2028 1099 M 1415 1141 L 1415 1152 1437 1152 L 1459 1152 1459 1141 L 1459 1130 1437 1130 L 1415 1130 1415 1141 M 1032 1161.500 L 1032 1182 1040.050 1182 C 1045.183 1182, 1049.131 1181.466, 1050.947 1180.527 C 1060.228 1175.728, 1061.121 1149.960, 1052.249 1142.981 C 1050.168 1141.345, 1048.188 1141, 1040.865 1141 L 1032 1141 1032 1161.500" stroke="none" fill="#fbfafa" fill-rule="evenodd"/></svg>